<svg width="48" height="48" viewBox="0 0 48 48" fill="none" xmlns="http://www.w3.org/2000/svg">
<path fill-rule="evenodd" clip-rule="evenodd" d="M42 16.5442L31.4558 6H16.5442L6 16.5442V31.4558L16.5442 42H31.4558L42 31.4558V16.5442ZM33.7558 30.9273L26.8284 24L33.7609 17.0675L30.9325 14.2391L24 21.1716L17.0727 14.2442L14.2442 17.0727L21.1716 24L14.2391 30.9325L17.0675 33.7609L24 26.8284L30.9273 33.7558L33.7558 30.9273Z" fill="#B6C2CD"/>
<path fill-rule="evenodd" clip-rule="evenodd" d="M26.8285 23.9999L33.7558 30.9272L30.9274 33.7557L24 26.8283L17.0676 33.7608L14.2391 30.9324L21.1716 23.9999L14.2443 17.0726L17.0727 14.2441L24 21.1715L30.9325 14.239L33.7609 17.0674L26.8285 23.9999Z" fill="#324558"/>
</svg>
