<svg width="48" height="48" viewBox="0 0 48 48" fill="none" xmlns="http://www.w3.org/2000/svg">
<path fill-rule="evenodd" clip-rule="evenodd" d="M20 8H24V44H20V34H14V44H10V8H14V4H20V8Z" fill="#B6C2CD"/>
<path fill-rule="evenodd" clip-rule="evenodd" d="M31 24C34.866 24 38 27.134 38 31V44H24V31C24 27.134 27.134 24 31 24ZM31 34C32.6569 34 34 32.6569 34 31C34 29.3431 32.6569 28 31 28C29.3431 28 28 29.3431 28 31C28 32.6569 29.3431 34 31 34Z" fill="#324558"/>
<path fill-rule="evenodd" clip-rule="evenodd" d="M14 34H20V44H14V34Z" fill="#324558"/>
</svg>
