<svg width="48" height="48" viewBox="0 0 48 48" fill="none" xmlns="http://www.w3.org/2000/svg">
<path fill-rule="evenodd" clip-rule="evenodd" d="M42 10H14V38C14 35.7909 12.2091 34 10 34C7.79086 34 6 35.7909 6 38C6 40.2091 7.79086 42 10 42H42V10ZM28 16.4258L21.4097 23.0161V34H34.5903V23.0161L28 16.4258Z" fill="#B6C2CD"/>
<path fill-rule="evenodd" clip-rule="evenodd" d="M14 38C14 35.7909 12.2091 34 10 34C7.79086 34 6 35.7909 6 38V10C6 7.79086 7.79086 6 10 6C12.2091 6 14 7.79086 14 10V38Z" fill="#324558"/>
<path fill-rule="evenodd" clip-rule="evenodd" d="M21.4097 23.0161L28 16.4258L34.5903 23.0161V34H21.4097V23.0161Z" fill="#324558"/>
</svg>
