<svg width="48" height="48" viewBox="0 0 48 48" fill="none" xmlns="http://www.w3.org/2000/svg">
<path fill-rule="evenodd" clip-rule="evenodd" d="M16.9923 5.70976L21 7.99989L31.4118 4.79625C32.4676 4.47141 33.5867 5.06391 33.9116 6.11964C33.9702 6.31019 34 6.50844 34 6.70781V17.1999H14L14 7.44625C14 6.34168 14.8954 5.44625 16 5.44625C16.3481 5.44625 16.6901 5.53708 16.9923 5.70976Z" fill="#B6C2CD"/>
<path fill-rule="evenodd" clip-rule="evenodd" d="M4.00134 20H43.9986V24H4.00134V20Z" fill="#B6C2CD"/>
<path fill-rule="evenodd" clip-rule="evenodd" d="M24 32.4856C23.1884 32.4856 22.5166 32.6603 21.9411 33.0163C21.9805 33.338 22.0007 33.6657 22.0007 33.998C22.0007 38.4152 18.4199 41.9961 14.0027 41.9961C9.58549 41.9961 6.00464 38.4152 6.00464 33.998C6.00464 29.5808 9.58549 26 14.0027 26C16.6517 26 19 27.2879 20.4555 29.2717C21.5186 28.7489 22.7084 28.4856 24 28.4856C25.2931 28.4856 26.4843 28.7495 27.5484 29.2736C29.0038 27.2887 31.3527 26 34.0027 26C38.4199 26 42.0007 29.5808 42.0007 33.998C42.0007 38.4152 38.4199 41.9961 34.0027 41.9961C29.5855 41.9961 26.0046 38.4152 26.0046 33.998C26.0046 33.6667 26.0248 33.3401 26.0639 33.0194C25.4872 32.6614 24.8139 32.4856 24 32.4856ZM34.0027 37.9961C36.2107 37.9961 38.0007 36.2061 38.0007 33.998C38.0007 31.79 36.2107 30 34.0027 30C31.7946 30 30.0046 31.79 30.0046 33.998C30.0046 36.2061 31.7946 37.9961 34.0027 37.9961ZM18.0007 33.998C18.0007 36.2061 16.2107 37.9961 14.0027 37.9961C11.7946 37.9961 10.0046 36.2061 10.0046 33.998C10.0046 31.79 11.7946 30 14.0027 30C16.2107 30 18.0007 31.79 18.0007 33.998Z" fill="#324558"/>
</svg>
