<svg width="48" height="48" viewBox="0 0 48 48" fill="none" xmlns="http://www.w3.org/2000/svg">
<path fill-rule="evenodd" clip-rule="evenodd" d="M34.3823 6.93781L37.0741 6.21655L40.6804 19.6754L27.9015 41.809C26.797 43.7222 24.3506 44.3777 22.4374 43.2731L19.0244 41.3026C20.9376 42.4072 23.3839 41.7517 24.4885 39.8385L37.2674 17.7049L34.3823 6.93781Z" fill="#B6C2CD"/>
<path fill-rule="evenodd" clip-rule="evenodd" d="M33.6612 4.24609L20.2024 7.85238L7.42353 29.986C6.31896 31.8992 6.97446 34.3455 8.88763 35.4501L19.0246 41.3027C20.9377 42.4072 23.3841 41.7517 24.4887 39.8386L37.2675 17.7049L33.6612 4.24609ZM27.7497 14.4852C28.6922 15.0293 29.8973 14.7064 30.4415 13.7639C30.9856 12.8214 30.6627 11.6163 29.7202 11.0722C28.7777 10.528 27.5726 10.8509 27.0284 11.7934C26.4843 12.7359 26.8072 13.941 27.7497 14.4852Z" fill="#324558"/>
</svg>
