<svg width="48" height="48" viewBox="0 0 48 48" fill="none" xmlns="http://www.w3.org/2000/svg">
<path fill-rule="evenodd" clip-rule="evenodd" d="M24 42C33.9411 42 42 33.9411 42 24C42 14.0589 33.9411 6 24 6C14.0589 6 6 14.0589 6 24C6 33.9411 14.0589 42 24 42ZM25.1369 25.4195C25.146 25.4104 25.1549 25.4013 25.1637 25.392L35.319 15.2367L33.0514 12.9691L23.9994 22.0211L16.8543 14.876L14.5933 17.137L22.8759 25.4195C23.5002 26.0439 24.5125 26.0439 25.1369 25.4195Z" fill="#B6C2CD"/>
<path fill-rule="evenodd" clip-rule="evenodd" d="M25.1638 25.3919C25.1549 25.4012 25.146 25.4104 25.1369 25.4194C24.5126 26.0438 23.5003 26.0438 22.8759 25.4194L14.5934 17.1369L16.8544 14.8759L23.9994 22.021L33.0514 12.969L35.3191 15.2366L25.1638 25.3919V25.3919Z" fill="#324558"/>
</svg>
