<svg width="48" height="48" viewBox="0 0 48 48" fill="none" xmlns="http://www.w3.org/2000/svg">
<path fill-rule="evenodd" clip-rule="evenodd" d="M21.299 10.5866C19.7212 8.52018 16.099 7.97982 10.4323 8.96554C14.1063 5.92635 18.3082 4.37919 23.038 4.32406C26.7649 4.28062 31.9271 5.56296 33.7609 9.16647C34.6322 9.6731 37.0983 11.0757 41.1591 13.3742C41.6397 13.6462 41.8088 14.2564 41.5367 14.737L38.6267 19.8765C38.3548 20.3569 37.745 20.526 37.2644 20.2544L31.6016 17.0545C31.5741 17.039 31.5465 17.0239 31.5185 17.0093C30.0511 16.2399 28.2379 16.8058 27.4685 18.2732L25.7565 21.5383L20.7438 18.5891C22.5215 15.0977 22.7065 12.4302 21.299 10.5866Z" fill="#B6C2CD"/>
<path fill-rule="evenodd" clip-rule="evenodd" d="M20.7425 18.5882L25.7602 21.5405L13.9492 43.8171C13.8132 44.0736 13.488 44.1607 13.2419 44.0065L7.70952 40.5397C7.47627 40.3935 7.40503 40.0863 7.55015 39.8524L20.7425 18.5882Z" fill="#324558"/>
</svg>
