<svg width="48" height="48" viewBox="0 0 48 48" fill="none" xmlns="http://www.w3.org/2000/svg">
<path fill-rule="evenodd" clip-rule="evenodd" d="M6.70353 19H15.8211C15.6778 20.603 15.6034 22.2778 15.6034 24C15.6034 25.7222 15.6778 27.397 15.8211 29H6.70353C6.24546 27.4126 6 25.7349 6 24C6 22.2651 6.24546 20.5874 6.70353 19V19Z" fill="#324558"/>
<path fill-rule="evenodd" clip-rule="evenodd" d="M7.87109 16C10.1086 11.4976 14.1757 8.06502 19.0997 6.67505C17.7655 8.96302 16.764 12.2021 16.1822 16H7.87109H7.87109Z" fill="#B6C2CD"/>
<path fill-rule="evenodd" clip-rule="evenodd" d="M41.2965 19C41.7546 20.5874 42 22.2651 42 24C42 25.7349 41.7546 27.4126 41.2965 29H32.179C32.3223 27.397 32.3966 25.7222 32.3966 24C32.3966 22.2778 32.3223 20.603 32.179 19L41.2965 19V19Z" fill="#324558"/>
<path fill-rule="evenodd" clip-rule="evenodd" d="M40.129 16H31.8179C31.2361 12.2021 30.2346 8.96302 28.9004 6.67505C33.8244 8.06502 37.8915 11.4976 40.129 16V16Z" fill="#B6C2CD"/>
<path fill-rule="evenodd" clip-rule="evenodd" d="M18.8469 19H29.1533C29.31 20.586 29.3967 22.2635 29.3967 24C29.3967 25.7365 29.31 27.414 29.1533 29H18.8469C18.6902 27.414 18.6035 25.7365 18.6035 24C18.6035 22.2635 18.6902 20.586 18.8469 19V19Z" fill="#324558"/>
<path fill-rule="evenodd" clip-rule="evenodd" d="M19.2417 16.0001C20.2239 10.0965 22.183 6.05664 23.9999 6.05664C25.8169 6.05664 27.7759 10.0965 28.7581 16.0001H19.2417H19.2417Z" fill="#B6C2CD"/>
<path fill-rule="evenodd" clip-rule="evenodd" d="M7.87109 32H16.1822C16.764 35.7979 17.7655 39.0369 19.0997 41.3249C14.1757 39.9349 10.1086 36.5023 7.87109 32V32Z" fill="#B6C2CD"/>
<path fill-rule="evenodd" clip-rule="evenodd" d="M40.129 32C37.8915 36.5023 33.8244 39.9349 28.9004 41.3249C30.2346 39.0369 31.2361 35.7979 31.8179 32H40.129V32Z" fill="#B6C2CD"/>
<path fill-rule="evenodd" clip-rule="evenodd" d="M19.2417 32H28.7581C27.7759 37.9036 25.8169 41.9434 23.9999 41.9434C22.183 41.9434 20.2239 37.9036 19.2417 32L19.2417 32Z" fill="#B6C2CD"/>
</svg>
