<svg width="48" height="48" viewBox="0 0 48 48" fill="none" xmlns="http://www.w3.org/2000/svg">
<path fill-rule="evenodd" clip-rule="evenodd" d="M40 10H8C5.79086 10 4 11.7909 4 14V34C4 36.2091 5.79086 38 8 38H40C42.2091 38 44 36.2091 44 34V14C44 11.7909 42.2091 10 40 10ZM26 30.8284L34.8028 22.0257L38 25.2229V16H28.7771L31.9743 19.1972L26 25.1716L20 19.1716L9.58579 29.5858L12.4142 32.4142L20 24.8284L26 30.8284Z" fill="#B6C2CD"/>
<path fill-rule="evenodd" clip-rule="evenodd" d="M34.8027 22.0257L25.9999 30.8284L19.9999 24.8284L12.4141 32.4142L9.58569 29.5858L19.9999 19.1716L25.9999 25.1716L31.9742 19.1972L28.777 16H37.9999V25.2229L34.8027 22.0257V22.0257Z" fill="#324558"/>
</svg>
