<svg width="48" height="48" viewBox="0 0 48 48" fill="none" xmlns="http://www.w3.org/2000/svg">
<path fill-rule="evenodd" clip-rule="evenodd" d="M20 26V36H38V24C38 22.8954 37.1046 22 36 22H28V12C28 10.8954 27.1046 10 26 10H12C10.8954 10 10 10.8954 10 12V24H8V25C8 25.5523 8.44772 26 9 26H20ZM10 6H38C40.2091 6 42 7.79086 42 10V38C42 40.2091 40.2091 42 38 42H10C7.79086 42 6 40.2091 6 38V10C6 7.79086 7.79086 6 10 6ZM18 36V37C18 37.5523 18.4477 38 19 38H39C39.5523 38 40 37.5523 40 37V36H18Z" fill="#B6C2CD"/>
<path fill-rule="evenodd" clip-rule="evenodd" d="M20 26H29C29.5523 26 30 25.5523 30 25V24H10V12C10 10.8954 10.8954 10 12 10H26C27.1046 10 28 10.8954 28 12V22H36C37.1046 22 38 22.8954 38 24V36H20V26Z" fill="#324558"/>
</svg>
