<svg width="48" height="48" viewBox="0 0 48 48" fill="none" xmlns="http://www.w3.org/2000/svg">
<path fill-rule="evenodd" clip-rule="evenodd" d="M22.0337 6.05664C20.4152 6.05664 18.6702 9.6552 17.7953 14.9139H26.2721C25.3972 9.6552 23.6522 6.05664 22.0337 6.05664ZM17.6687 6.60759C13.2826 7.84572 9.6597 10.9033 7.66665 14.9139H15.0699C15.5881 11.5308 16.4802 8.64562 17.6687 6.60759ZM14.7482 17.5861H6.62668C6.21864 19.0002 6 20.4945 6 22.0399C6 23.5854 6.21864 25.0797 6.62668 26.4937H14.7482C14.6206 25.0658 14.5543 23.574 14.5543 22.0399C14.5543 20.5059 14.6206 19.0141 14.7482 17.5861ZM26.7862 24.2877C26.822 23.5536 26.8408 22.8032 26.8408 22.0399C26.8408 20.4931 26.7636 18.9989 26.624 17.5861H17.4434C17.3038 18.9989 17.2266 20.4931 17.2266 22.0399C17.2266 23.5868 17.3038 25.081 17.4434 26.4937H26.1931C26.2835 25.7183 26.4869 24.9774 26.7862 24.2877ZM28.211 32.9282C27.7265 34.7007 27.1167 36.2411 26.3987 37.4723C27.7095 37.1023 28.9521 36.5697 30.1035 35.8979L28.211 32.9282ZM38.0079 20.6497C37.9175 19.5961 37.7251 18.5716 37.4407 17.5861H29.3191C29.4169 18.6789 29.4786 19.8091 29.5022 20.967C30.7768 20.076 32.3278 19.5533 34.001 19.5533C35.4645 19.5533 36.8346 19.9532 38.0079 20.6497ZM28.9975 14.9139H36.4007C34.4077 10.9033 30.7848 7.84572 26.3987 6.60759C27.5872 8.64562 28.4793 11.5308 28.9975 14.9139ZM7.66665 29.166H15.0699C15.5881 32.5491 16.4802 35.4343 17.6687 37.4723C13.2826 36.2342 9.6597 33.1765 7.66665 29.166ZM26.2721 29.166C25.3972 34.4247 23.6522 38.0232 22.0337 38.0232C20.4152 38.0232 18.6702 34.4247 17.7953 29.166H26.2721Z" fill="#B6C2CD"/>
<path fill-rule="evenodd" clip-rule="evenodd" d="M34.001 19.5532C29.6594 19.5532 26.1398 23.0728 26.1398 27.4145C26.1398 29.1491 26.7016 30.7525 27.6531 32.0526L34.001 42.014L40.3489 32.0526C41.3005 30.7525 41.8623 29.1491 41.8623 27.4145C41.8623 23.0728 38.3427 19.5532 34.001 19.5532ZM33.9121 30.7836C35.7728 30.7836 37.2812 29.2752 37.2812 27.4145C37.2812 25.5538 35.7728 24.0454 33.9121 24.0454C32.0514 24.0454 30.543 25.5538 30.543 27.4145C30.543 29.2752 32.0514 30.7836 33.9121 30.7836Z" fill="#324558"/>
</svg>
