<svg width="48" height="48" viewBox="0 0 48 48" fill="none" xmlns="http://www.w3.org/2000/svg">
<path fill-rule="evenodd" clip-rule="evenodd" d="M26.6662 26.4447L24 33.46L21.3311 26.4373C22.2262 26.5073 23.1178 26.5424 23.9951 26.5424C24.8747 26.5424 25.7687 26.5101 26.6662 26.4447V26.4447Z" fill="#B6C2CD"/>
<path fill-rule="evenodd" clip-rule="evenodd" d="M35.1285 24.7424L34.7522 32.4116L29.676 26.1001C31.5664 25.8027 33.4183 25.3526 35.1285 24.7424V24.7424Z" fill="#B6C2CD"/>
<path fill-rule="evenodd" clip-rule="evenodd" d="M41.6054 20.7998L43.8418 27.6055L37.3389 23.8221C39.0223 23.0078 40.4875 22.0035 41.6054 20.7998V20.7998Z" fill="#B6C2CD"/>
<path fill-rule="evenodd" clip-rule="evenodd" d="M18.3612 26.0763L13.2658 32.4116L12.8853 24.6565C14.6031 25.2884 16.4632 25.7618 18.3612 26.0763V26.0763Z" fill="#B6C2CD"/>
<path fill-rule="evenodd" clip-rule="evenodd" d="M10.7786 23.7644L4.17627 27.6057L6.43976 20.7175C7.57892 21.9183 9.06935 22.9342 10.7786 23.7644V23.7644Z" fill="#B6C2CD"/>
<path fill-rule="evenodd" clip-rule="evenodd" d="M4.06885 15.0884C9.06239 20.4828 16.4022 21.3436 23.9999 21.3436C31.5975 21.3436 38.7306 20.6433 43.9211 15.0884C43.9211 23.026 33.1762 26.5422 23.995 26.5422C14.8138 26.5422 4.06885 22.7036 4.06885 15.0884Z" fill="#324558"/>
</svg>
