<svg width="48" height="48" viewBox="0 0 48 48" fill="none" xmlns="http://www.w3.org/2000/svg">
<path fill-rule="evenodd" clip-rule="evenodd" d="M27.7767 24H38C38 16.268 31.732 10 24 10C16.268 10 10 16.268 10 24H20.2231L20.2138 24.0294C20.1899 24.0988 20.1678 24.169 20.1476 24.2401L20.143 24.2545H20.1435C20.0471 24.5988 19.9955 24.9618 19.9955 25.3369C19.9955 27.5485 21.7884 29.3414 24 29.3414C26.2116 29.3414 28.0045 27.5485 28.0045 25.3369C28.0045 24.9618 27.9529 24.5988 27.8567 24.2545L27.8545 24.2474C27.8331 24.1714 27.8095 24.0964 27.7837 24.0224L27.7767 24ZM24 42C14.0589 42 6 33.9411 6 24C6 14.0589 14.0589 6 24 6C33.9411 6 42 14.0589 42 24C42 33.9411 33.9411 42 24 42Z" fill="#B6C2CD"/>
<path fill-rule="evenodd" clip-rule="evenodd" d="M20.1431 24.2544L20.1477 24.24C20.1679 24.169 20.19 24.0987 20.2139 24.0293L24.0001 11.9885L27.7838 24.0223C27.8095 24.0963 27.8332 24.1714 27.8546 24.2473L27.8568 24.2544C27.953 24.5987 28.0046 24.9617 28.0046 25.3368C28.0046 27.5484 26.2117 29.3413 24.0001 29.3413C21.7885 29.3413 19.9956 27.5484 19.9956 25.3368C19.9956 24.9617 20.0472 24.5987 20.1436 24.2544H20.1431Z" fill="#324558"/>
</svg>
