<svg width="48" height="48" viewBox="0 0 48 48" fill="none" xmlns="http://www.w3.org/2000/svg">
<path fill-rule="evenodd" clip-rule="evenodd" d="M44 16H4V14C4 11.7909 5.79086 10 8 10H40C42.2091 10 44 11.7909 44 14V16ZM44 22V34C44 36.2091 42.2091 38 40 38H8C5.79086 38 4 36.2091 4 34V22H44ZM36 34C38.2091 34 40 32.2091 40 30C40 27.7909 38.2091 26 36 26C33.7909 26 32 27.7909 32 30C32 32.2091 33.7909 34 36 34Z" fill="#B6C2CD"/>
<path fill-rule="evenodd" clip-rule="evenodd" d="M4 16H44V22H4V16Z" fill="#324558"/>
</svg>
