<svg width="48" height="48" viewBox="0 0 48 48" fill="none" xmlns="http://www.w3.org/2000/svg">
<path d="M29.8992 9.25209L28.4132 12.967C27.0488 12.4207 25.5595 12.1202 24 12.1202C17.439 12.1202 12.1203 17.439 12.1203 24C12.1203 30.561 17.439 35.8797 24 35.8797C30.1621 35.8797 35.2283 31.1881 35.8217 25.1821L39.8021 25.5802C39.009 33.6085 32.2369 39.8797 24 39.8797C15.2299 39.8797 8.12027 32.7701 8.12027 24C8.12027 15.2298 15.2299 8.12024 24 8.12024C26.0846 8.12024 28.0754 8.52191 29.8992 9.25209V9.25209Z" fill="#B6C2CD"/>
<path fill-rule="evenodd" clip-rule="evenodd" d="M31.9786 4.07422L36.2762 14.1988L26.1517 18.4964L31.9786 4.07422Z" fill="#324558"/>
</svg>
