<svg width="48" height="48" viewBox="0 0 48 48" fill="none" xmlns="http://www.w3.org/2000/svg">
<path fill-rule="evenodd" clip-rule="evenodd" d="M5.77667 10H12.8833C13.8646 10 14.66 10.8954 14.66 12V36C14.66 37.1046 13.8646 38 12.8833 38H5.77667C4.79544 38 4 37.1046 4 36V12C4 10.8954 4.79544 10 5.77667 10Z" fill="#B6C2CD"/>
<path fill-rule="evenodd" clip-rule="evenodd" d="M35.1168 10H42.2234C43.2046 10 44.0001 10.8954 44.0001 12V36C44.0001 37.1046 43.2046 38 42.2234 38H35.1168C34.1355 38 33.3401 37.1046 33.3401 36V12C33.3401 10.8954 34.1355 10 35.1168 10Z" fill="#324558"/>
<path fill-rule="evenodd" clip-rule="evenodd" d="M20.4466 10H27.5533C28.5345 10 29.3299 10.8954 29.3299 12V36C29.3299 37.1046 28.5345 38 27.5533 38H20.4466C19.4654 38 18.6699 37.1046 18.6699 36V12C18.6699 10.8954 19.4654 10 20.4466 10Z" fill="#B6C2CD"/>
</svg>
