<svg width="48" height="48" viewBox="0 0 48 48" fill="none" xmlns="http://www.w3.org/2000/svg">
<path fill-rule="evenodd" clip-rule="evenodd" d="M24 38C31.732 38 38 31.732 38 24C38 22.8915 37.8712 21.813 37.6276 20.7788C41.306 21.8245 44 25.209 44 29.2226C44 34.0702 40.0702 38 35.2226 38L35.216 38L24 38Z" fill="#324558"/>
<path fill-rule="evenodd" clip-rule="evenodd" d="M24 38H12.784C7.93274 38 4 34.0673 4 29.216C4 25.2 6.6951 21.8134 10.3753 20.7663C11.8349 14.5934 17.381 10 24 10C31.732 10 38 16.268 38 24C38 31.732 31.732 38 24 38V38Z" fill="#B6C2CD"/>
</svg>
