<svg width="48" height="48" viewBox="0 0 48 48" fill="none" xmlns="http://www.w3.org/2000/svg">
<path fill-rule="evenodd" clip-rule="evenodd" d="M23.6663 4.17065L6.6604 33.6258L12.5514 37.027C13.4906 35.4002 15.5708 34.8428 17.1975 35.782C18.8243 36.7213 19.3817 38.8014 18.4425 40.4282L24.3335 43.8293L41.3394 14.3742L35.4484 10.973C34.5092 12.5998 32.429 13.1572 30.8023 12.2179C29.1755 11.2787 28.6181 9.1986 29.5574 7.57184L23.6663 4.17065ZM33.2645 20.351C33.8168 19.3944 33.4891 18.1712 32.5325 17.6189L25.2598 13.42C24.3032 12.8677 23.08 13.1955 22.5277 14.1521L14.7353 27.649C14.183 28.6056 14.5107 29.8288 15.4673 30.3811L22.74 34.58C23.6966 35.1323 24.9198 34.8045 25.4721 33.8479L33.2645 20.351Z" fill="#B6C2CD"/>
<path fill-rule="evenodd" clip-rule="evenodd" d="M33.2646 20.3508C33.8169 19.3943 33.4891 18.1711 32.5325 17.6188L25.2599 13.4199C24.3033 12.8676 23.0801 13.1954 22.5278 14.1519L14.7353 27.6489C14.183 28.6055 14.5108 29.8287 15.4674 30.381L22.7401 34.5799C23.6967 35.1321 24.9198 34.8044 25.4721 33.8478L33.2646 20.3508ZM23.008 30.1158L19.1994 27.9169L24.9919 17.884L28.8005 20.0829L23.008 30.1158Z" fill="#324558"/>
</svg>
