<svg width="48" height="48" viewBox="0 0 48 48" fill="none" xmlns="http://www.w3.org/2000/svg">
<path fill-rule="evenodd" clip-rule="evenodd" d="M24 27.4409C24.434 27.1376 24.916 26.8926 25.4367 26.7191L30.0057 25.196H35.6034L40.1724 26.7191C42.4582 27.481 44 29.6201 44 32.0295V38.1496C40.6476 38.8146 36.8407 39.1903 32.8046 39.1903C29.6999 39.1903 26.7309 38.968 24 38.5627C24.8193 38.4411 25.6172 38.3031 26.3909 38.1496V32.0295C26.3909 30.1689 25.4715 28.4695 24 27.4409H24Z" fill="#B6C2CD"/>
<path fill-rule="evenodd" clip-rule="evenodd" d="M32.8048 8.80957C35.8642 8.80957 38.3442 11.2897 38.3442 14.349C38.3442 14.5523 38.3331 14.7554 38.3107 14.9574L37.9532 18.1927C37.6632 20.8173 35.4454 22.8036 32.8048 22.8036C30.1643 22.8036 27.9464 20.8173 27.6564 18.1927L27.2989 14.9574C26.9629 11.9166 29.1556 9.17909 32.1964 8.84308C32.3984 8.82076 32.6016 8.80957 32.8048 8.80957Z" fill="#B6C2CD"/>
<path fill-rule="evenodd" clip-rule="evenodd" d="M4 38.1496V32.0295C4 29.6201 5.54178 27.481 7.82757 26.7191L12.3966 25.196H17.9943L22.5633 26.7191C24.8491 27.481 26.3909 29.6201 26.3909 32.0295V38.1496C23.0385 38.8146 19.2316 39.1903 15.1954 39.1903C11.1593 39.1903 7.35236 38.8146 4 38.1496H4Z" fill="#324558"/>
<path fill-rule="evenodd" clip-rule="evenodd" d="M15.1957 8.80957C18.255 8.80957 20.7351 11.2897 20.7351 14.349C20.7351 14.5523 20.7239 14.7554 20.7016 14.9574L20.3441 18.1927C20.0541 20.8173 17.8362 22.8036 15.1957 22.8036C12.5551 22.8036 10.3373 20.8173 10.0473 18.1927L9.68976 14.9574C9.35375 11.9166 11.5464 9.17909 14.5873 8.84308C14.7893 8.82076 14.9924 8.80957 15.1957 8.80957Z" fill="#324558"/>
</svg>
