<svg width="48" height="48" viewBox="0 0 48 48" fill="none" xmlns="http://www.w3.org/2000/svg">
<path fill-rule="evenodd" clip-rule="evenodd" d="M22 14.334V40H18L16.0687 26.7495L11.4909 26.1622C9.49497 25.9061 8 24.207 8 22.1947V19.7668C8 17.771 9.47108 16.0806 11.4477 15.8051L22 14.334Z" fill="#324558"/>
<path fill-rule="evenodd" clip-rule="evenodd" d="M38 18C39.6569 18 41 19.3431 41 21C41 22.6569 39.6569 24 38 24V18Z" fill="#324558"/>
<path fill-rule="evenodd" clip-rule="evenodd" d="M22 14.3333L30.0398 9.24145C31.3202 8.43052 32.8046 8 34.3202 8L38 8V34H34.3715C32.8238 34 31.3093 33.551 30.0116 32.7075L22 27.5V14.3333Z" fill="#B6C2CD"/>
</svg>
