<svg width="48" height="48" viewBox="0 0 48 48" fill="none" xmlns="http://www.w3.org/2000/svg">
<path fill-rule="evenodd" clip-rule="evenodd" d="M10 41.6697V34.0165C10 31.0035 11.928 28.3285 14.7864 27.3757L20.5 25.4712H27.5L33.2136 27.3757C36.072 28.3285 38 31.0035 38 34.0165V41.6697C33.8078 42.5014 29.0472 42.9712 24 42.9712C18.9528 42.9712 14.1922 42.5014 10 41.6697H10Z" fill="#B6C2CD"/>
<path fill-rule="evenodd" clip-rule="evenodd" d="M24.0002 4.97974C27.826 4.97974 30.9273 8.08111 30.9273 11.9068C30.9273 12.161 30.9133 12.415 30.8854 12.6676L30.4384 16.7135C30.0757 19.9955 27.3022 22.4794 24.0002 22.4794C20.6982 22.4794 17.9247 19.9955 17.5621 16.7135L17.115 12.6676C16.6948 8.86505 19.4368 5.44182 23.2394 5.02164C23.4921 4.99373 23.746 4.97974 24.0002 4.97974Z" fill="#324558"/>
</svg>
