<svg width="48" height="48" viewBox="0 0 48 48" fill="none" xmlns="http://www.w3.org/2000/svg">
<path fill-rule="evenodd" clip-rule="evenodd" d="M26 6H22V9.96803C20.8554 10.1297 19.7547 10.4281 18.7151 10.8462L16.7321 7.41154L13.268 9.41154L15.2526 12.849C14.3586 13.5512 13.5512 14.3586 12.849 15.2526L9.41154 13.268L7.41154 16.7321L10.8462 18.7151C10.4281 19.7547 10.1297 20.8554 9.96803 22H6V26H9.96803C10.1297 27.1446 10.4281 28.2453 10.8462 29.2849L7.41154 31.268L9.41154 34.7321L12.849 32.7474C13.5512 33.6414 14.3586 34.4488 15.2526 35.151L13.268 38.5885L16.7321 40.5885L18.7151 37.1538C19.7547 37.5719 20.8554 37.8703 22 38.032V42H26V38.032C27.1446 37.8703 28.2453 37.5719 29.2849 37.1538L31.268 40.5885L34.7321 38.5885L32.7474 35.151C33.6414 34.4488 34.4488 33.6414 35.151 32.7474L38.5885 34.7321L40.5885 31.268L37.1538 29.2849C37.5719 28.2453 37.8703 27.1446 38.032 26H42V22H38.032C37.8703 20.8554 37.5719 19.7547 37.1538 18.7151L40.5885 16.7321L38.5885 13.268L35.151 15.2526C34.4488 14.3586 33.6414 13.5512 32.7474 12.849L34.7321 9.41154L31.268 7.41154L29.2849 10.8462C28.2453 10.4281 27.1446 10.1297 26 9.96803V6ZM24 34C29.5228 34 34 29.5228 34 24C34 18.4772 29.5228 14 24 14C18.4772 14 14 18.4772 14 24C14 29.5228 18.4772 34 24 34Z" fill="#324558"/>
<circle cx="24" cy="24" r="6" fill="#B6C2CD"/>
</svg>
