<svg width="48" height="48" viewBox="0 0 48 48" fill="none" xmlns="http://www.w3.org/2000/svg">
<path fill-rule="evenodd" clip-rule="evenodd" d="M11.0369 18.4035C10.9501 10.6811 17.0239 4.34707 24.6594 4H25.18C32.9024 4 39.2364 10.1605 39.2364 17.8829C39.2364 21.7874 37.6746 25.4317 34.898 28.1215L36.8069 40.269L23.6182 44L21.7961 38.7939H16.1562C14.0738 38.7939 12.3384 37.1453 12.3384 35.0629V30.3774L8 29.2495L11.0369 20.3124V18.4035ZM32.0443 18.5804C32.0805 18.3018 32.0992 18.0177 32.0992 17.7292C32.0992 17.4407 32.0805 17.1566 32.0443 16.878L34.0265 16.234L33.2897 13.9665L31.308 14.6104C31.0345 14.108 30.6971 13.6456 30.3065 13.2339L31.532 11.5472L29.6031 10.1458L28.3786 11.8313C27.8714 11.5891 27.3282 11.4104 26.7591 11.3055V9.22173H24.3749V11.3055C23.8058 11.4104 23.2626 11.5891 22.7555 11.8313L21.5309 10.1458L19.602 11.5472L20.8275 13.2339C20.437 13.6456 20.0995 14.108 19.826 14.6104L17.8443 13.9665L17.1075 16.234L19.0897 16.878C19.0535 17.1566 19.0348 17.4407 19.0348 17.7292C19.0348 18.0177 19.0535 18.3018 19.0897 18.5804L17.1075 19.2244L17.8443 21.4919L19.826 20.848C20.0995 21.3504 20.437 21.8128 20.8275 22.2245L19.602 23.9112L21.5309 25.3126L22.7554 23.6271C23.2626 23.8693 23.8058 24.048 24.3749 24.1529V26.2367H26.7591V24.1529C27.3282 24.048 27.8714 23.8693 28.3786 23.6271L29.6031 25.3126L31.532 23.9112L30.3065 22.2245C30.6971 21.8128 31.0345 21.3504 31.308 20.848L33.2897 21.4919L34.0265 19.2244L32.0443 18.5804Z" fill="#B6C2CD"/>
<path fill-rule="evenodd" clip-rule="evenodd" d="M26.7591 9.22168H24.3749V11.3054C23.8058 11.4104 23.2626 11.5891 22.7554 11.8313L21.5309 10.1458L19.602 11.5472L20.8275 13.2339C20.437 13.6455 20.0995 14.108 19.826 14.6103L17.8443 13.9664L17.1075 16.2339L19.0897 16.878C19.0535 17.1566 19.0348 17.4407 19.0348 17.7291C19.0348 18.0176 19.0535 18.3017 19.0897 18.5803L17.1075 19.2243L17.8443 21.4918L19.826 20.848C20.0995 21.3503 20.437 21.8128 20.8275 22.2244L19.602 23.9111L21.5309 25.3125L22.7554 23.627C23.2626 23.8692 23.8058 24.0479 24.3749 24.1529V26.2366H26.7591V24.1529C27.3282 24.0479 27.8714 23.8692 28.3786 23.627L29.6031 25.3125L31.532 23.9111L30.3065 22.2244C30.6971 21.8128 31.0345 21.3503 31.308 20.848L33.2897 21.4918L34.0265 19.2243L32.0443 18.5803C32.0805 18.3017 32.0992 18.0176 32.0992 17.7291C32.0992 17.4407 32.0805 17.1566 32.0443 16.878L34.0265 16.2339L33.2897 13.9664L31.308 14.6103C31.0345 14.108 30.6971 13.6455 30.3065 13.2339L31.532 11.5472L29.6031 10.1458L28.3786 11.8313C27.8714 11.5891 27.3282 11.4104 26.7591 11.3054V9.22168ZM25.567 21.4878C27.6428 21.4878 29.3256 19.805 29.3256 17.7291C29.3256 15.6533 27.6428 13.9705 25.567 13.9705C23.4912 13.9705 21.8084 15.6533 21.8084 17.7291C21.8084 19.805 23.4912 21.4878 25.567 21.4878Z" fill="#324558"/>
</svg>
