<svg width="48" height="48" viewBox="0 0 48 48" fill="none" xmlns="http://www.w3.org/2000/svg">
<path fill-rule="evenodd" clip-rule="evenodd" d="M34 36H14V38C14 39.1046 13.1046 40 12 40H8C6.89543 40 6 39.1046 6 38V20H42V38C42 39.1046 41.1046 40 40 40H36C34.8954 40 34 39.1046 34 38V36ZM16 28C16 29.6569 14.6569 31 13 31C11.3431 31 10 29.6569 10 28C10 26.3431 11.3431 25 13 25C14.6569 25 16 26.3431 16 28ZM35 31C36.6569 31 38 29.6569 38 28C38 26.3431 36.6569 25 35 25C33.3431 25 32 26.3431 32 28C32 29.6569 33.3431 31 35 31Z" fill="#324558"/>
<path fill-rule="evenodd" clip-rule="evenodd" d="M14.4721 8L33.5279 8C35.043 8 36.428 8.85601 37.1056 10.2111L42 20H6L10.8944 10.2111C11.572 8.85601 12.957 8 14.4721 8Z" fill="#B6C2CD"/>
</svg>
