<svg width="48" height="48" viewBox="0 0 48 48" fill="none" xmlns="http://www.w3.org/2000/svg">
<path fill-rule="evenodd" clip-rule="evenodd" d="M25.71 23.4222L22.4625 26.6697L19.1571 39.0057C18.5689 41.2009 16.7909 42.8754 14.5645 43.331L13.816 43.4841L16.8057 32.3265L8.63777 40.4945L8.3962 39.7697C7.67753 37.6137 8.23866 35.2367 9.84566 33.6297L18.8762 24.5991L20.0649 20.163C22.3944 19.9879 24.4799 18.4524 25.2791 16.1582L24.5331 18.9423L26.5712 16.9042C24.984 18.7434 24.6969 21.3173 25.71 23.4222V23.4222Z" fill="#B6C2CD"/>
<path fill-rule="evenodd" clip-rule="evenodd" d="M26.4456 11.8676C27.3033 8.66684 25.4038 5.37682 22.203 4.51917C19.0022 3.66152 15.7121 5.56101 14.8545 8.76181L13.8192 12.6255C12.9616 15.8263 14.8611 19.1163 18.0619 19.974C21.2627 20.8316 24.5527 18.9321 25.4103 15.7313L26.4456 11.8676ZM18.7182 9.79708C19.0041 8.73015 20.1008 8.09699 21.1677 8.38287C22.2346 8.66875 22.8678 9.76543 22.5819 10.8324L21.5466 14.6961C21.2607 15.763 20.1641 16.3962 19.0971 16.1103C18.0302 15.8244 17.397 14.7277 17.6829 13.6608L18.7182 9.79708ZM38.1889 13.7486C40.532 16.0918 40.532 19.8908 38.1889 22.2339L35.3605 25.0624C33.0173 27.4055 29.2183 27.4055 26.8752 25.0624C24.532 22.7192 24.532 18.9202 26.8752 16.5771L29.7036 13.7486C32.0468 11.4055 35.8457 11.4055 38.1889 13.7486ZM32.532 16.5771C33.3131 15.796 34.5794 15.796 35.3605 16.5771C36.1415 17.3581 36.1415 18.6245 35.3605 19.4055L32.532 22.2339C31.751 23.015 30.4847 23.015 29.7036 22.2339C28.9226 21.4529 28.9226 20.1866 29.7036 19.4055L32.532 16.5771Z" fill="#324558"/>
</svg>
