<svg width="48" height="48" viewBox="0 0 48 48" fill="none" xmlns="http://www.w3.org/2000/svg">
<path fill-rule="evenodd" clip-rule="evenodd" d="M42 24C42 33.9411 33.9411 42 24 42C14.0589 42 6 33.9411 6 24C6 14.0589 14.0589 6 24 6C33.9411 6 42 14.0589 42 24ZM26.6232 14.7395C26.6232 16.1882 25.4488 17.3627 24 17.3627C22.5512 17.3627 21.3768 16.1882 21.3768 14.7395C21.3768 13.2907 22.5512 12.1163 24 12.1163C25.4488 12.1163 26.6232 13.2907 26.6232 14.7395ZM26 36V21.0317H22V36H26Z" fill="#B6C2CD"/>
<ellipse cx="23.9999" cy="14.7394" rx="2.6232" ry="2.6232" fill="#324558"/>
<path fill-rule="evenodd" clip-rule="evenodd" d="M22 21.0317H26V36H22V21.0317Z" fill="#324558"/>
</svg>
