<svg width="48" height="48" viewBox="0 0 48 48" fill="none" xmlns="http://www.w3.org/2000/svg">
<path fill-rule="evenodd" clip-rule="evenodd" d="M10 4H34C36.2091 4 38 5.79086 38 8V40C38 42.2091 36.2091 44 34 44H10V4ZM16 32V36H32V32H16ZM24 26C28.4183 26 32 22.4183 32 18C32 13.5817 28.4183 10 24 10C19.5817 10 16 13.5817 16 18C16 22.4183 19.5817 26 24 26ZM18.083 19L20.6325 19C20.7233 20.7169 21.0449 22.2649 21.5219 23.4659C19.7358 22.6549 18.4175 20.9942 18.083 19ZM18.083 17C18.4175 15.0058 19.7358 13.3451 21.5219 12.5341C21.0449 13.7351 20.7233 15.2831 20.6325 17H18.083ZM29.917 17H27.3675C27.2767 15.2831 26.9551 13.7351 26.4781 12.5341C28.2642 13.3451 29.5825 15.0058 29.917 17ZM29.917 19C29.5825 20.9942 28.2642 22.6549 26.4781 23.4659C26.9551 22.2649 27.2767 20.7169 27.3675 19H29.917ZM22.6371 19H25.3629C25.1831 21.9132 24.2707 24 24 24C23.7293 24 22.8169 21.9132 22.6371 19ZM22.6371 17C22.8169 14.0868 23.7293 12 24 12C24.2707 12 25.1831 14.0868 25.3629 17H22.6371Z" fill="#B6C2CD"/>
<rect x="16" y="32" width="16" height="4" fill="#324558"/>
<rect x="16" y="32" width="16" height="4" fill="#324558"/>
</svg>
