<svg width="48" height="48" viewBox="0 0 48 48" fill="none" xmlns="http://www.w3.org/2000/svg">
<path fill-rule="evenodd" clip-rule="evenodd" d="M38 24.1387H27.0646C26.5222 24.1387 26.0825 24.6184 26.0825 25.2102V34H6C4.89543 34 4 33.1046 4 32V12C4 10.8954 4.89543 10 6 10H36C37.1046 10 38 10.8954 38 12V24.1387Z" fill="#B6C2CD"/>
<path fill-rule="evenodd" clip-rule="evenodd" d="M27.0647 24.1387H40.8149C41.3573 24.1387 41.797 24.6184 41.797 25.2101V35.9246H26.0825V25.2101C26.0825 24.6184 26.5222 24.1387 27.0647 24.1387Z" fill="#324558"/>
<path fill-rule="evenodd" clip-rule="evenodd" d="M24.1182 35.9246H43.7613L43.4562 37.1449C43.3469 37.5822 42.9541 37.8889 42.5034 37.8889H25.3761C24.9254 37.8889 24.5326 37.5822 24.4233 37.1449L24.1182 35.9246Z" fill="#B6C2CD"/>
</svg>
