<svg width="48" height="48" viewBox="0 0 48 48" fill="none" xmlns="http://www.w3.org/2000/svg">
<path fill-rule="evenodd" clip-rule="evenodd" d="M42 24C42 33.9411 33.9411 42 24 42C14.0589 42 6 33.9411 6 24C6 14.0589 14.0589 6 24 6C33.9411 6 42 14.0589 42 24ZM26.6264 33.8892C26.6264 35.338 25.452 36.5125 24.0032 36.5125C22.5544 36.5125 21.38 35.338 21.38 33.8892C21.38 32.4405 22.5544 31.266 24.0032 31.266C25.452 31.266 26.6264 32.4405 26.6264 33.8892ZM17.2807 17.356L21.2001 18.1554C21.5066 16.6525 22.5752 15.7877 24.14 15.7877C25.5054 15.7877 26.6076 16.5928 26.8 18.0703C26.9459 19.1907 26.6917 19.7118 25.5792 20.8429C25.5333 20.8896 25.4126 21.0109 25.2904 21.1338C25.1675 21.2574 25.043 21.3826 24.9915 21.4348C22.9546 23.5038 22 25.3122 22 28.2839H26C26 26.5287 26.4742 25.6303 27.842 24.2411C27.8844 24.198 27.9939 24.0879 28.1089 23.9723C28.2386 23.8418 28.3755 23.7042 28.4311 23.6477C30.3204 21.7267 31.1015 20.1257 30.7665 17.5537C30.2927 13.9155 27.3795 11.7877 24.14 11.7877C20.6816 11.7877 17.9687 13.9832 17.2807 17.356Z" fill="#B6C2CD"/>
<ellipse cx="24.0031" cy="33.8893" rx="2.6232" ry="2.6232" fill="#324558"/>
<path d="M21.2001 18.1553L17.2808 17.3559C17.9687 13.983 20.6816 11.7876 24.1401 11.7876C27.3795 11.7876 30.2927 13.9154 30.7665 17.5536C31.1015 20.1256 30.3204 21.7265 28.4311 23.6476C28.3262 23.7543 27.9323 24.1492 27.842 24.241C26.4743 25.6302 26 26.5286 26 28.2838H22C22 25.312 22.9546 23.5037 24.9915 21.4347C25.0942 21.3305 25.487 20.9365 25.5793 20.8427C26.6917 19.7117 26.9459 19.1905 26.8 18.0702C26.6076 16.5926 25.5054 15.7876 24.1401 15.7876C22.5752 15.7876 21.5066 16.6524 21.2001 18.1553Z" fill="#324558"/>
</svg>
