<svg width="48" height="48" viewBox="0 0 48 48" fill="none" xmlns="http://www.w3.org/2000/svg">
<path fill-rule="evenodd" clip-rule="evenodd" d="M24 42C33.9411 42 42 33.9411 42 24C42 14.0589 33.9411 6 24 6C14.0589 6 6 14.0589 6 24C6 33.9411 14.0589 42 24 42ZM24 14C22.6751 14 21.4103 14.2577 20.2532 14.7256L18.8331 11.2107L15.5989 18.8299L23.2181 22.064L21.752 18.4353C22.4463 18.1546 23.2051 18 24 18C27.3137 18 30 20.6863 30 24C30 27.3137 27.3137 30 24 30C21.0763 30 18.641 27.9088 18.1083 25.1405L14.1804 25.9009C15.0683 30.5146 19.1271 34 24 34C29.5228 34 34 29.5228 34 24C34 18.4772 29.5228 14 24 14Z" fill="#B6C2CD"/>
<path fill-rule="evenodd" clip-rule="evenodd" d="M20.2531 14.7256C21.4103 14.2576 22.6751 13.9999 24 13.9999C29.5228 13.9999 34 18.4771 34 23.9999C34 29.5228 29.5228 33.9999 24 33.9999C19.1271 33.9999 15.0683 30.5146 14.1804 25.9008L18.1082 25.1405C18.641 27.9087 21.0763 29.9999 24 29.9999C27.3137 29.9999 30 27.3137 30 23.9999C30 20.6862 27.3137 17.9999 24 17.9999C23.2051 17.9999 22.4463 18.1545 21.752 18.4353L23.218 22.064L15.5989 18.8298L18.833 11.2107L20.2531 14.7256V14.7256Z" fill="#324558"/>
</svg>
