<svg width="48" height="48" viewBox="0 0 48 48" fill="none" xmlns="http://www.w3.org/2000/svg">
<path fill-rule="evenodd" clip-rule="evenodd" d="M24 44C18.4341 44 13.338 42.8348 10 40.6268V26.7427C13.338 28.9507 18.4341 30.1159 24 30.1159C29.5659 30.1159 34.662 28.9507 38 26.7427V40.6268C34.662 42.8348 29.5659 44 24 44Z" fill="#B6C2CD"/>
<path fill-rule="evenodd" clip-rule="evenodd" d="M10.0001 8.59131C10.0251 11.1116 16.2835 13.1522 24 13.1522C31.7165 13.1522 37.9749 11.1116 37.9999 8.59131L38 23.1434C34.662 25.3514 29.5659 26.5167 24 26.5167C18.4341 26.5167 13.338 25.3514 10 23.1434V8.59131H10.0001Z" fill="#B6C2CD"/>
<ellipse cx="24" cy="8.57604" rx="14" ry="4.57604" fill="#324558"/>
</svg>
