<svg width="48" height="48" viewBox="0 0 48 48" fill="none" xmlns="http://www.w3.org/2000/svg">
<path fill-rule="evenodd" clip-rule="evenodd" d="M11.3918 37.2435L20.3899 21.6584C21.238 22.8088 22.3319 23.8069 23.6487 24.5672C24.9656 25.3275 26.3769 25.7758 27.7972 25.9351L25.6965 29.5736C21.5314 29.807 18.9361 34.1932 20.7363 37.9565L20.7909 38.0704L18.7992 41.5201L12.9572 43.0855L11.3918 37.2435Z" fill="#B6C2CD"/>
<path fill-rule="evenodd" clip-rule="evenodd" d="M23.6488 24.5672C18.5351 21.6148 16.7831 15.076 19.7354 9.9623C22.6878 4.84862 29.2267 3.09654 34.3404 6.04893C39.454 9.00131 41.2061 15.5402 38.2537 20.6538C35.3013 25.7675 28.7625 27.5196 23.6488 24.5672ZM27.0701 18.6415C28.911 19.7043 31.2651 19.0736 32.328 17.2326C33.3909 15.3916 32.7601 13.0376 30.9191 11.9747C29.0781 10.9118 26.7241 11.5426 25.6612 13.3835C24.5983 15.2245 25.2291 17.5786 27.0701 18.6415Z" fill="#324558"/>
</svg>
