<svg width="48" height="48" viewBox="0 0 48 48" fill="none" xmlns="http://www.w3.org/2000/svg">
<path fill-rule="evenodd" clip-rule="evenodd" d="M8 10H40C42.2091 10 44 11.7909 44 14V34C44 36.2091 42.2091 38 40 38H8C5.79086 38 4 36.2091 4 34V14C4 11.7909 5.79086 10 8 10ZM38.0141 27.077C39.1612 27.077 40.0911 26.1471 40.0911 25C40.0911 23.8529 39.1612 22.923 38.0141 22.923C36.867 22.923 35.9371 23.8529 35.9371 25C35.9371 26.1471 36.867 27.077 38.0141 27.077Z" fill="#B6C2CD"/>
<path d="M36.3446 23.7642C36.0885 24.1095 35.9371 24.5371 35.9371 25.0001C35.9371 25.5313 36.1365 26.016 36.4647 26.3833C35.0066 26.3639 33.734 25.3898 33.3347 23.9872L32.3083 20.3818L31.6068 24.4689C31.4142 25.5912 30.5473 26.4773 29.4294 26.6943C28.1813 26.9366 26.9666 26.2899 26.4398 25.1956L25.7893 31.7171C25.6662 32.951 24.6676 33.9142 23.43 33.9927C22.0345 34.0811 20.8314 33.0215 20.743 31.626L19.7918 16.6208L18.8866 27.0001C18.7972 28.0246 18.0553 28.8734 17.052 29.0991C15.7795 29.3852 14.5159 28.5857 14.2297 27.3131L13.4191 23.7085L12.6867 24.8666C12.0819 25.823 11.0292 26.4029 9.89761 26.4029H8L8 23.8028H9.89761C10.1376 23.8028 10.3609 23.6799 10.4892 23.477L11.4001 22.0366C12.1267 20.8875 13.6473 20.545 14.7964 21.2717C15.3484 21.6207 15.7391 22.1749 15.8824 22.8121L16.4297 25.2457L17.2022 16.3885C17.3269 14.9582 18.5875 13.8999 20.0177 14.0246C21.2982 14.1363 22.3049 15.1671 22.3862 16.4499L23.285 30.6287L23.9207 24.2562C24.0552 22.9077 25.2574 21.9236 26.6059 22.0581C27.6844 22.1657 28.5645 22.9681 28.7711 24.0321C28.7857 24.1074 28.8586 24.1566 28.9339 24.142C28.9906 24.131 29.0345 24.086 29.0443 24.0291L29.7861 19.7072C30.0239 18.3215 31.3401 17.3909 32.7258 17.6287C33.691 17.7944 34.4756 18.4989 34.7437 19.4408L35.8353 23.2753C35.9055 23.5219 36.103 23.706 36.3446 23.7642V23.7642Z" fill="#324558"/>
</svg>
