<svg width="48" height="48" viewBox="0 0 48 48" fill="none" xmlns="http://www.w3.org/2000/svg">
<path d="M8.08009 20.1779C10.1741 11.4488 18.919 6.02396 27.683 8.04727C36.4934 10.0813 41.9868 18.8725 39.9527 27.6829C37.9187 36.4934 29.1275 41.9867 20.3171 39.9527C15.9119 38.9356 12.3359 36.2293 10.1155 32.676L13.5077 30.5563C15.1856 33.2415 17.8879 35.2866 21.2169 36.0552C27.8748 37.5923 34.5181 33.441 36.0552 26.7831C37.5923 20.1252 33.4411 13.4819 26.7832 11.9448C20.1945 10.4236 13.6201 14.4732 11.9944 21.0099L15.9381 21.8481L9.09683 26.2909L4.65405 19.4496L8.08009 20.1779Z" fill="#B6C2CD"/>
<path d="M22 14.4844H26V23.1716L31.4142 28.5858L28.5858 31.4142L23.1716 26C22.4214 25.2499 22 24.2324 22 23.1716V14.4844Z" fill="#324558"/>
</svg>
