<svg width="48" height="48" viewBox="0 0 48 48" fill="none" xmlns="http://www.w3.org/2000/svg">
<path fill-rule="evenodd" clip-rule="evenodd" d="M16.9933 12L18 6H30L31 12H44V36C44 38.2091 42.2091 40 40 40H8C5.79086 40 4 38.2091 4 36V12H16.9933ZM24 36C29.5228 36 34 31.5228 34 26C34 20.4772 29.5228 16 24 16C18.4772 16 14 20.4772 14 26C14 31.5228 18.4772 36 24 36Z" fill="#B6C2CD"/>
<circle cx="24" cy="26" r="10" fill="#324558"/>
<path fill-rule="evenodd" clip-rule="evenodd" d="M8 9H14V12H8V9Z" fill="#324558"/>
</svg>
