<svg width="48" height="48" viewBox="0 0 48 48" fill="none" xmlns="http://www.w3.org/2000/svg">
<path fill-rule="evenodd" clip-rule="evenodd" d="M30 12H21C19.3431 12 18 13.3431 18 15V36H13C11.3431 36 10 34.6569 10 33V7C10 5.34315 11.3431 4 13 4H27C28.6569 4 30 5.34315 30 7V12Z" fill="#B6C2CD"/>
<path fill-rule="evenodd" clip-rule="evenodd" d="M21 12H35C36.6569 12 38 13.3431 38 15V41C38 42.6569 36.6569 44 35 44H21C19.3431 44 18 42.6569 18 41V15C18 13.3431 19.3431 12 21 12Z" fill="#324558"/>
</svg>
