<svg width="48" height="48" viewBox="0 0 48 48" fill="none" xmlns="http://www.w3.org/2000/svg">
<path d="M16.9468 17.2271L30.0006 12.0056C30.0198 13.0683 30.4533 14.0297 31.1465 14.7353L17.9995 19.9941C17.9998 19.9734 17.9999 19.9527 17.9999 19.932C17.9999 18.889 17.6007 17.9392 16.9468 17.2271H16.9468Z" fill="#B6C2CD"/>
<path d="M16.9468 33.2271L30.0006 28.0056C30.0198 29.0683 30.4533 30.0297 31.1465 30.7353L17.9995 35.9941C17.9998 35.9734 17.9999 35.9527 17.9999 35.932C17.9999 34.889 17.6007 33.9392 16.9468 33.2271H16.9468Z" fill="#B6C2CD"/>
<path d="M30.0005 27.9941L16.8534 22.7353C17.5466 22.0297 17.9802 21.0683 17.9993 20.0056L31.0532 25.2271C30.3992 25.9392 30 26.889 30 27.932C30 27.9527 30.0002 27.9734 30.0005 27.9941V27.9941Z" fill="#B6C2CD"/>
<circle cx="34" cy="11.9321" r="4" fill="#324558"/>
<circle cx="14" cy="19.9321" r="4" fill="#324558"/>
<circle cx="34" cy="27.9321" r="4" fill="#324558"/>
<circle cx="14" cy="35.9321" r="4" fill="#324558"/>
</svg>
