<svg width="48" height="48" viewBox="0 0 48 48" fill="none" xmlns="http://www.w3.org/2000/svg">
<path fill-rule="evenodd" clip-rule="evenodd" d="M23.2511 13.4H38.4L42 17L38.4 20.6H35.0468L34.9867 20.5123C34.6226 19.9812 34.1581 19.5265 33.6193 19.1739C31.339 17.6812 28.2804 18.3197 26.7878 20.6H23.2511C22.7017 21.8575 21.8732 22.9653 20.8439 23.8449C19.2715 22.5011 17.2305 21.6897 15 21.6897C12.7695 21.6897 10.7285 22.5011 9.15612 23.8449C7.22449 22.1941 6 19.7401 6 17C6 12.0294 10.0294 8 15 8C18.6906 8 21.8623 10.2214 23.2511 13.4ZM18.2401 17C18.2401 15.2105 16.7895 13.7599 15 13.7599C13.2105 13.7599 11.7599 15.2105 11.7599 17C11.7599 18.7895 13.2105 20.2401 15 20.2401C16.7895 20.2401 18.2401 18.7895 18.2401 17Z" fill="#B6C2CD"/>
<path fill-rule="evenodd" clip-rule="evenodd" d="M23.2511 27.0897H38.4L42 30.6897L38.4 34.2897H35.0468L34.9867 34.202C34.6226 33.6709 34.1581 33.2162 33.6193 32.8636C31.339 31.3709 28.2804 32.0094 26.7878 34.2897H23.2511C21.8623 37.4683 18.6906 39.6897 15 39.6897C10.0294 39.6897 6 35.6603 6 30.6897C6 25.7191 10.0294 21.6897 15 21.6897C18.6906 21.6897 21.8623 23.9111 23.2511 27.0897ZM18.2401 30.6897C18.2401 28.9002 16.7895 27.4496 15 27.4496C13.2105 27.4496 11.7599 28.9002 11.7599 30.6897C11.7599 32.4792 13.2105 33.9298 15 33.9298C16.7895 33.9298 18.2401 32.4792 18.2401 30.6897Z" fill="#324558"/>
</svg>
