<svg width="48" height="48" viewBox="0 0 48 48" fill="none" xmlns="http://www.w3.org/2000/svg">
<path d="M39 42V35.3646C39 32.0214 38.6519 30.8091 37.9983 29.5868C37.3446 28.3646 36.3854 27.4054 35.1632 26.7517C33.9409 26.0981 32.7286 25.75 29.3854 25.75H24V25.75" stroke="#28292A" stroke-width="2"/>
<path d="M30.25 19.501L24 25.751L30.2494 32.0004" stroke="#28292A" stroke-width="2"/>
<path d="M9 37.3815V21.9334C9 19.0913 9.20163 18.063 9.62084 16.9693C10.04 15.8755 10.6768 14.9483 11.5472 14.1644C12.4175 13.3805 13.3049 12.8232 15.9576 11.803L31 6.03223" stroke="#28292A" stroke-width="2"/>
<path d="M39 21.4295V13.2052C39 12.7142 38.9096 12.2275 38.7334 11.7693C37.9403 9.70737 35.626 8.67876 33.5641 9.4718L16.4788 16.0431C15.3936 16.4604 14.8993 16.7229 14.5171 17.0192L14.2736 17.2238C13.8384 17.6158 13.52 18.0793 13.3104 18.6262C13.1008 19.1731 13 19.6872 13 21.1083V37.5569C13 38.0479 13.0904 38.5346 13.2666 38.9929C14.0597 41.0547 16.374 42.0834 18.4359 41.2903L29.8932 36.8837" stroke="#28292A" stroke-width="2"/>
</svg>
