<svg width="48" height="48" viewBox="0 0 48 48" fill="none" xmlns="http://www.w3.org/2000/svg">
<path d="M8.73005 35.455L9.18404 34.564L8.73005 35.455ZM6.54497 33.27L7.43597 32.816L6.54497 33.27ZM33.27 6.54497L32.816 7.43597L33.27 6.54497ZM35.455 8.73005L34.564 9.18404L35.455 8.73005ZM8.73005 6.54497L9.18404 7.43597L8.73005 6.54497ZM6.54497 8.73005L7.43597 9.18404L6.54497 8.73005ZM17.1845 14.6263L18.1273 14.293H16.2417L17.1845 14.6263ZM14 7H28V5H14V7ZM7 28V14H5V28H7ZM14 35C12.5834 35 11.581 34.9992 10.7974 34.9352C10.0255 34.8721 9.55435 34.7527 9.18404 34.564L8.27606 36.346C8.9753 36.7023 9.73898 36.8554 10.6346 36.9286C11.5185 37.0008 12.6164 37 14 37V35ZM5 28C5 29.3836 4.99922 30.4815 5.07144 31.3654C5.14462 32.261 5.29768 33.0247 5.65396 33.7239L7.43597 32.816C7.24729 32.4456 7.12787 31.9745 7.0648 31.2026C7.00078 30.419 7 29.4166 7 28H5ZM9.18404 34.564C8.43139 34.1805 7.81947 33.5686 7.43597 32.816L5.65396 33.7239C6.2292 34.8529 7.14708 35.7708 8.27606 36.346L9.18404 34.564ZM28 7C29.4166 7 30.419 7.00078 31.2026 7.0648C31.9745 7.12787 32.4456 7.24729 32.816 7.43597L33.7239 5.65396C33.0247 5.29768 32.261 5.14462 31.3654 5.07144C30.4815 4.99922 29.3836 5 28 5V7ZM37 14C37 12.6164 37.0008 11.5185 36.9286 10.6346C36.8554 9.73898 36.7023 8.9753 36.346 8.27606L34.564 9.18404C34.7527 9.55435 34.8721 10.0255 34.9352 10.7974C34.9992 11.581 35 12.5834 35 14H37ZM32.816 7.43597C33.5686 7.81947 34.1805 8.43139 34.564 9.18404L36.346 8.27606C35.7708 7.14708 34.8529 6.2292 33.7239 5.65396L32.816 7.43597ZM14 5C12.6164 5 11.5185 4.99922 10.6346 5.07144C9.73898 5.14462 8.9753 5.29768 8.27606 5.65396L9.18404 7.43597C9.55435 7.24729 10.0255 7.12787 10.7974 7.0648C11.581 7.00078 12.5834 7 14 7V5ZM7 14C7 12.5834 7.00078 11.581 7.0648 10.7974C7.12787 10.0255 7.24729 9.55435 7.43597 9.18404L5.65396 8.27606C5.29768 8.9753 5.14462 9.73898 5.07144 10.6346C4.99922 11.5185 5 12.6164 5 14H7ZM8.27606 5.65396C7.14708 6.2292 6.2292 7.14708 5.65396 8.27606L7.43597 9.18404C7.81947 8.43139 8.43139 7.81947 9.18404 7.43597L8.27606 5.65396ZM25.1012 16.1667H27.6012V14.1667H25.1012V16.1667ZM27.6012 16.1667H30.1012V14.1667H27.6012V16.1667ZM25.1012 27.8333H27.6012V25.8333H25.1012V27.8333ZM27.6012 27.8333H30.1012V25.8333H27.6012V27.8333ZM26.6012 15.1667V26.8333H28.6012V15.1667H26.6012ZM10.9345 27.8333H12.8691V25.8333H10.9345V27.8333ZM12.8691 27.8333H15.1012V25.8333H12.8691V27.8333ZM19.2678 27.8333H21.4999V25.8333H19.2678V27.8333ZM21.4999 27.8333H23.4345V25.8333H21.4999V27.8333ZM13.8119 27.1666L15.0996 23.5242L13.2139 22.8576L11.9263 26.5L13.8119 27.1666ZM15.0996 23.5242L18.1273 14.9596L16.2417 14.293L13.2139 22.8576L15.0996 23.5242ZM16.2417 14.9596L19.2694 23.5242L21.1551 22.8576L18.1273 14.293L16.2417 14.9596ZM19.2694 23.5242L20.5571 27.1666L22.4428 26.5L21.1551 22.8576L19.2694 23.5242ZM14.1522 24.1909H14.1568V22.1909H14.1522V24.1909ZM14.1568 24.1909H20.2123V22.1909H14.1568V24.1909ZM35 14V26.0469H37V14H35ZM26.0469 35H14V37H26.0469V35ZM31.2929 32.7071L41.2929 42.7071L42.7071 41.2929L32.7071 31.2929L31.2929 32.7071ZM41.2929 31.2929L31.2929 41.2929L32.7071 42.7071L42.7071 32.7071L41.2929 31.2929Z" fill="#28292A"/>
</svg>
