<svg width="48" height="48" viewBox="0 0 48 48" fill="none" xmlns="http://www.w3.org/2000/svg">
<path d="M9.27606 41.346L8.82207 42.237L9.27606 41.346ZM6.65396 38.7239L5.76295 39.1779L6.65396 38.7239ZM41.346 38.7239L42.237 39.1779L41.346 38.7239ZM38.7239 41.346L39.1779 42.237L38.7239 41.346ZM38.7239 6.65396L39.1779 5.76295L38.7239 6.65396ZM41.346 9.27606L42.237 8.82207L41.346 9.27606ZM9.27606 6.65396L8.82207 5.76295L9.27606 6.65396ZM6.65396 9.27606L5.76295 8.82207L6.65396 9.27606ZM19.4214 16.3516L20.3642 16.0183H18.4786L19.4214 16.3516ZM15.6 7H32.4V5H15.6V7ZM41 15.6V32.4H43V15.6H41ZM32.4 41H15.6V43H32.4V41ZM7 32.4V15.6H5V32.4H7ZM15.6 41C13.9033 41 12.691 40.9992 11.7406 40.9216C10.802 40.8449 10.2073 40.6982 9.73005 40.455L8.82207 42.237C9.62827 42.6478 10.5154 42.8281 11.5778 42.9149C12.6285 43.0008 13.9363 43 15.6 43V41ZM5 32.4C5 34.0637 4.99922 35.3715 5.08507 36.4222C5.17186 37.4846 5.35217 38.3717 5.76295 39.1779L7.54497 38.27C7.30179 37.7927 7.15512 37.198 7.07842 36.2594C7.00078 35.309 7 34.0967 7 32.4H5ZM9.73005 40.455C8.78924 39.9757 8.02433 39.2108 7.54497 38.27L5.76295 39.1779C6.43407 40.4951 7.50493 41.5659 8.82207 42.237L9.73005 40.455ZM41 32.4C41 34.0967 40.9992 35.309 40.9216 36.2594C40.8449 37.198 40.6982 37.7927 40.455 38.27L42.237 39.1779C42.6478 38.3717 42.8281 37.4846 42.9149 36.4222C43.0008 35.3715 43 34.0637 43 32.4H41ZM32.4 43C34.0637 43 35.3715 43.0008 36.4222 42.9149C37.4846 42.8281 38.3717 42.6478 39.1779 42.237L38.27 40.455C37.7927 40.6982 37.198 40.8449 36.2594 40.9216C35.309 40.9992 34.0967 41 32.4 41V43ZM40.455 38.27C39.9757 39.2108 39.2108 39.9757 38.27 40.455L39.1779 42.237C40.4951 41.5659 41.5659 40.4951 42.237 39.1779L40.455 38.27ZM32.4 7C34.0967 7 35.309 7.00078 36.2594 7.07842C37.198 7.15512 37.7927 7.30179 38.27 7.54497L39.1779 5.76295C38.3717 5.35217 37.4846 5.17186 36.4222 5.08507C35.3715 4.99922 34.0637 5 32.4 5V7ZM43 15.6C43 13.9363 43.0008 12.6285 42.9149 11.5778C42.8281 10.5154 42.6478 9.62827 42.237 8.82207L40.455 9.73005C40.6982 10.2073 40.8449 10.802 40.9216 11.7406C40.9992 12.691 41 13.9033 41 15.6H43ZM38.27 7.54497C39.2108 8.02433 39.9757 8.78924 40.455 9.73005L42.237 8.82207C41.5659 7.50493 40.4951 6.43407 39.1779 5.76295L38.27 7.54497ZM15.6 5C13.9363 5 12.6285 4.99922 11.5778 5.08507C10.5154 5.17186 9.62827 5.35217 8.82207 5.76295L9.73005 7.54497C10.2073 7.30179 10.802 7.15512 11.7406 7.07842C12.691 7.00078 13.9033 7 15.6 7V5ZM7 15.6C7 13.9033 7.00078 12.691 7.07842 11.7406C7.15512 10.802 7.30179 10.2073 7.54497 9.73005L5.76295 8.82207C5.35217 9.62827 5.17186 10.5154 5.08507 11.5778C4.99922 12.6285 5 13.9363 5 15.6H7ZM8.82207 5.76295C7.50493 6.43407 6.43407 7.50493 5.76295 8.82207L7.54497 9.73005C8.02433 8.78924 8.78924 8.02433 9.73005 7.54497L8.82207 5.76295ZM28.9214 18H31.9214V16H28.9214V18ZM31.9214 18H34.9214V16H31.9214V18ZM28.9214 32H31.9214V30H28.9214V32ZM31.9214 32H34.9214V30H31.9214V32ZM30.9214 17V31H32.9214V17H30.9214ZM11.9214 32H14.2429V30H11.9214V32ZM14.2429 32H16.9214V30H14.2429V32ZM21.9214 32H24.5999V30H21.9214V32ZM24.5999 32H26.9214V30H24.5999V32ZM15.1857 31.3333L16.7309 26.9624L14.8453 26.2958L13.3001 30.6667L15.1857 31.3333ZM16.7309 26.9624L20.3642 16.6849L18.4786 16.0183L14.8453 26.2958L16.7309 26.9624ZM18.4786 16.6849L22.1119 26.9624L23.9975 26.2958L20.3642 16.0183L18.4786 16.6849ZM22.1119 26.9624L23.6571 31.3333L25.5428 30.6667L23.9975 26.2958L22.1119 26.9624ZM15.7826 27.6291H15.7881V25.6291H15.7826V27.6291ZM15.7881 27.6291H23.0547V25.6291H15.7881V27.6291Z" fill="#28292A"/>
</svg>
