<svg width="48" height="48" viewBox="0 0 48 48" fill="none" xmlns="http://www.w3.org/2000/svg">
<path d="M10 37.381V21.9329C10 19.0908 10.2016 18.0625 10.6208 16.9688C11.04 15.875 11.6768 14.9478 12.5472 14.1639C13.4175 13.38 14.3049 12.8227 16.9576 11.8025L32 6.03174" stroke="#28292A" stroke-width="2"/>
<path fill-rule="evenodd" clip-rule="evenodd" d="M17.4788 16.0431L34.5641 9.4718C36.626 8.67876 38.9403 9.70737 39.7334 11.7693C39.9096 12.2275 40 12.7142 40 13.2052V29.6538L39.99 30.3447C39.9597 31.2629 39.8611 31.6885 39.6896 32.1359C39.48 32.6828 39.1616 33.1464 38.7264 33.5383L38.4829 33.7429C38.1007 34.0392 37.6064 34.3017 36.5212 34.7191L19.4359 41.2903C17.374 42.0834 15.0597 41.0547 14.2666 38.9929C14.0904 38.5346 14 38.0479 14 37.5569V21.1083C14 19.6872 14.1008 19.1731 14.3104 18.6262C14.52 18.0794 14.8384 17.6158 15.2736 17.2238L15.5171 17.0192C15.8993 16.7229 16.3936 16.4604 17.4788 16.0431Z" stroke="#28292A" stroke-width="2"/>
</svg>
