<svg width="48" height="48" viewBox="0 0 48 48" fill="none" xmlns="http://www.w3.org/2000/svg">
<path d="M9 37.5866V22.1385C9 19.2963 9.20163 18.2681 9.62084 17.1743C10.04 16.0806 10.6768 15.1534 11.5472 14.3695C12.4175 13.5856 13.3049 13.0283 15.9576 12.008L31 6.2373" stroke="#28292A" stroke-width="2"/>
<path d="M18.7591 41.3714L18.4359 41.4954C16.374 42.2884 14.0597 41.2598 13.2666 39.1979C13.0904 38.7397 13 38.253 13 37.762V21.3134C13 19.8923 13.1008 19.3782 13.3104 18.8313C13.52 18.2844 13.8384 17.8208 14.2736 17.4289L14.5171 17.2243C14.8568 16.9609 15.2851 16.7243 16.1383 16.3818L33.5641 9.67688C35.626 8.88384 37.9403 9.91245 38.7334 11.9743C38.9096 12.4326 39 12.9193 39 13.4103L39.0015 17.1102" stroke="#28292A" stroke-width="2"/>
<path fill-rule="evenodd" clip-rule="evenodd" d="M31.0664 35.2904C33.3991 35.2904 35.2902 33.3993 35.2902 31.0666C35.2902 28.7338 33.3991 26.8428 31.0664 26.8428C28.7336 26.8428 26.8425 28.7338 26.8425 31.0666C26.8425 33.3993 28.7336 35.2904 31.0664 35.2904Z" stroke="#28292A" stroke-width="2"/>
<path fill-rule="evenodd" clip-rule="evenodd" d="M26.8823 20.9648C27.3034 20.7903 27.7292 20.6442 28.1575 20.5254C28.9422 22.3762 29.8968 23.2945 31.0209 23.2811C32.1403 23.2677 33.1359 22.353 34.0077 20.5369C34.8532 20.7718 35.6681 21.1094 36.4335 21.5399C35.7637 23.4416 35.8209 24.7923 36.603 25.5933C37.3881 26.3974 38.7121 26.4233 40.575 25.6708C40.7956 26.0566 40.9933 26.4609 41.1677 26.882C41.3422 27.3031 41.4883 27.7289 41.6071 28.1572C39.7557 28.9427 38.8378 29.8972 38.8512 31.021C38.8646 32.1404 39.7793 33.136 41.5954 34.0078C41.3607 34.8528 41.0232 35.6676 40.5927 36.4329C38.6909 35.7638 37.34 35.821 36.539 36.6031C35.7349 37.3883 35.709 38.7123 36.4615 40.5751C36.076 40.7953 35.6716 40.993 35.2505 41.1674C34.829 41.342 34.4029 41.4883 33.9742 41.6071C33.1896 39.7558 32.2351 38.8379 31.1113 38.8513C29.9919 38.8647 28.9963 39.7794 28.1245 41.5955C27.2788 41.36 26.4645 41.0227 25.6996 40.5924C26.3685 38.691 26.3113 37.3402 25.5292 36.5392C24.7439 35.7348 23.4195 35.7091 21.556 36.4621C21.3372 36.0757 21.1395 35.6713 20.9651 35.2502C20.7907 34.8291 20.6445 34.4034 20.5258 33.9752C22.3761 33.1901 23.2944 32.2355 23.281 31.1114C23.2676 29.9921 22.353 28.9965 20.5371 28.1248C20.7719 27.28 21.1092 26.4655 21.5394 25.7005C23.4413 26.3686 24.7922 26.3114 25.5932 25.5293C26.3975 24.744 26.4232 23.4196 25.6702 21.5562C26.0561 21.3372 26.4608 21.1393 26.8823 20.9648Z" stroke="#28292A" stroke-width="2"/>
</svg>
