<svg width="48" height="48" viewBox="0 0 48 48" fill="none" xmlns="http://www.w3.org/2000/svg">
<path d="M37.9615 18C37.9136 17.2156 37.806 16.6591 37.5639 16.184C37.1805 15.4314 36.5685 14.8195 35.8159 14.436C34.9602 14 33.8401 14 31.5999 14H16.3999C14.1597 14 13.0396 14 12.184 14.436C11.4313 14.8195 10.8194 15.4314 10.4359 16.184C10.1939 16.6591 10.0862 17.2156 10.0383 18" stroke="#28292A" stroke-width="2"/>
<path d="M33.9616 10C33.9137 9.21558 33.806 8.65905 33.564 8.18404C33.1805 7.43139 32.5686 6.81947 31.8159 6.43597C30.9603 6 29.8402 6 27.6 6H20.4C18.1597 6 17.0396 6 16.184 6.43597C15.4313 6.81947 14.8194 7.43139 14.4359 8.18404C14.1939 8.65905 14.0862 9.21558 14.0383 10" stroke="#28292A" stroke-width="2"/>
<path d="M8.29661 33.4827C7.50939 29.5466 7.11578 27.5786 7.64861 26.0384C8.11597 24.6874 9.05028 23.5478 10.2833 22.8245C11.6891 22 13.6961 22 17.7102 22H30.2899C34.304 22 36.311 22 37.7168 22.8245C38.9498 23.5478 39.8842 24.6874 40.3515 26.0384C40.8843 27.5786 40.4907 29.5466 39.7035 33.4827L39.5435 34.2827C38.9937 37.0317 38.7188 38.4062 38.0011 39.4343C37.3683 40.341 36.4972 41.0551 35.484 41.4979C34.3351 42 32.9334 42 30.1299 42H17.8702C15.0668 42 13.665 42 12.5161 41.4979C11.503 41.0551 10.6319 40.341 9.99899 39.4343C9.2813 38.4062 9.0064 37.0317 8.45661 34.2827L8.29661 33.4827Z" stroke="#28292A" stroke-width="2"/>
</svg>
