<svg width="48" height="48" viewBox="0 0 48 48" fill="none" xmlns="http://www.w3.org/2000/svg">
<path fill-rule="evenodd" clip-rule="evenodd" d="M32 39C32 40.6569 30.6569 42 29 42C27.3431 42 26 40.6569 26 39V32H22V39C22 40.6569 20.6569 42 19 42C17.3431 42 16 40.6569 16 39V20H32V39Z" stroke="#28292A" stroke-width="2"/>
<path d="M16 5L20 9.16667" stroke="#28292A" stroke-width="2"/>
<path d="M32 5L28 9.16667" stroke="#28292A" stroke-width="2"/>
<path fill-rule="evenodd" clip-rule="evenodd" d="M24 8C28.2844 8 31.7822 11.3679 31.9902 15.6007L32 16H16C16 11.5817 19.5817 8 24 8Z" stroke="#28292A" stroke-width="2"/>
<path fill-rule="evenodd" clip-rule="evenodd" d="M38 20C39.1046 20 40 20.8954 40 22V30C40 31.1046 39.1046 32 38 32C36.8954 32 36 31.1046 36 30V22C36 20.8954 36.8954 20 38 20Z" stroke="#28292A" stroke-width="2"/>
<path fill-rule="evenodd" clip-rule="evenodd" d="M10 20C11.1046 20 12 20.8954 12 22V30C12 31.1046 11.1046 32 10 32C8.89543 32 8 31.1046 8 30V22C8 20.8954 8.89543 20 10 20Z" stroke="#28292A" stroke-width="2"/>
</svg>
