<svg width="48" height="48" viewBox="0 0 48 48" fill="none" xmlns="http://www.w3.org/2000/svg">
<path d="M20 38C20 40.2091 21.7909 42 24 42C26.2091 42 28 40.2091 28 38" stroke="#28292A" stroke-width="2"/>
<path d="M24 10V5" stroke="#28292A" stroke-width="2"/>
<path d="M24 10C17.3726 10 12 15.3726 12 22V33.7143C12 33.8721 11.8721 34 11.7143 34C10.7675 34 10 34.7675 10 35.7143V38H38V35.7143C38 34.7675 37.2325 34 36.2857 34C36.1279 34 36 33.8721 36 33.7143V22C36 15.3726 30.6274 10 24 10Z" stroke="#28292A" stroke-width="2"/>
</svg>
