<svg width="48" height="48" viewBox="0 0 48 48" fill="none" xmlns="http://www.w3.org/2000/svg">
<path fill-rule="evenodd" clip-rule="evenodd" d="M34.259 20.0439C35.3076 20.0439 36.1577 20.894 36.1577 21.9426C36.1577 22.9912 35.3076 23.8413 34.259 23.8413H24.7656V27.5323L27.513 40.4541C27.7155 41.4066 27.1654 42.344 26.2645 42.6476L26.0506 42.7061C25.0982 42.9085 24.1608 42.3584 23.8572 41.4576L23.7987 41.2437L21.7125 31.436H20.2733L18.1862 41.2553C17.9681 42.281 16.9599 42.9357 15.9342 42.7177C14.9085 42.4997 14.2538 41.4914 14.4718 40.4657L17.1709 27.7602V23.8413H7.67749C6.62888 23.8413 5.77881 22.9912 5.77881 21.9426C5.77881 20.894 6.62888 20.0439 7.67749 20.0439H34.259Z" stroke="#28292A" stroke-width="2"/>
<path fill-rule="evenodd" clip-rule="evenodd" d="M20.9683 16.2471C23.0655 16.2471 24.7656 14.5469 24.7656 12.4497C24.7656 10.3525 23.0655 8.65234 20.9683 8.65234C18.871 8.65234 17.1709 10.3525 17.1709 12.4497C17.1709 14.5469 18.871 16.2471 20.9683 16.2471Z" stroke="#28292A" stroke-width="2"/>
<path fill-rule="evenodd" clip-rule="evenodd" d="M37.762 4C37.762 7.57814 40.566 10.5014 44.0965 10.6923L44.4642 10.7022C40.8861 10.7022 37.9628 13.5062 37.7719 17.0367L37.762 17.4044C37.762 13.7029 34.7613 10.7022 31.0598 10.7022C34.6379 10.7022 37.5612 7.89823 37.7521 4.36773L37.762 4Z" stroke="#28292A" stroke-width="2"/>
</svg>
