<svg width="48" height="48" viewBox="0 0 48 48" fill="none" xmlns="http://www.w3.org/2000/svg">
<path d="M24 9L23.3783 8.68916C22.1184 8.05919 21.4884 7.7442 20.8282 7.52207C20.2418 7.32479 19.6384 7.18235 19.0258 7.09658C18.3359 7 17.6316 7 16.2229 7H6V39H16.2229C17.6316 39 18.3359 39 19.0258 39.0966C19.6384 39.1824 20.2418 39.3248 20.8282 39.5221C21.4884 39.7442 22.1184 40.0592 23.3783 40.6892L24 41M24 9L24.6217 8.68916C25.8816 8.05919 26.5116 7.7442 27.1718 7.52207C27.7582 7.32479 28.3616 7.18235 28.9742 7.09658C29.6641 7 30.3684 7 31.7771 7H42V39H31.7771C30.3684 39 29.6641 39 28.9742 39.0966C28.3616 39.1824 27.7582 39.3248 27.1718 39.5221C26.5116 39.7442 25.8816 40.0592 24.6217 40.6892L24 41M24 9V41" stroke="#28292A" stroke-width="2"/>
</svg>
