<svg width="48" height="48" viewBox="0 0 48 48" fill="none" xmlns="http://www.w3.org/2000/svg">
<path fill-rule="evenodd" clip-rule="evenodd" d="M24 32C27.3137 32 30 29.3137 30 26C30 22.6863 27.3137 20 24 20C20.6863 20 18 22.6863 18 26C18 29.3137 20.6863 32 24 32Z" stroke="#28292A" stroke-width="2"/>
<path fill-rule="evenodd" clip-rule="evenodd" d="M20.1632 8H27.8368C28.6296 8 28.9177 8.06823 29.2173 8.20327C29.5168 8.33832 29.763 8.54017 29.9542 8.80741C30.1453 9.07465 30.2688 9.34383 30.4242 10.1212L31.2 14H34.3083C36.9829 14 37.9528 14.2785 38.9305 14.8014C39.9083 15.3243 40.6757 16.0917 41.1986 17.0695L41.3832 17.4391C41.7868 18.3163 42 19.3514 42 21.6917V30.3083C42 32.9829 41.7215 33.9528 41.1986 34.9305C40.6757 35.9083 39.9083 36.6757 38.9305 37.1986L38.5609 37.3832C37.6837 37.7868 36.6486 38 34.3083 38H13.6917C11.0171 38 10.0472 37.7215 9.06946 37.1986C8.09168 36.6757 7.32432 35.9083 6.8014 34.9305L6.61683 34.5609C6.24204 33.7463 6.03143 32.7956 6.00326 30.7903L6 21.6917C6 19.0171 6.27848 18.0472 6.8014 17.0695C7.32432 16.0917 8.09168 15.3243 9.06946 14.8014L9.4391 14.6168C10.2537 14.242 11.2044 14.0314 13.2097 14.0033L16.798 14L17.5758 10.1212L17.6879 9.62553C17.7972 9.20936 17.9024 9.00784 18.0458 8.80741C18.237 8.54017 18.4832 8.33832 18.7827 8.20327C19.0823 8.06823 19.3704 8 20.1632 8Z" stroke="#28292A" stroke-width="2"/>
<path d="M8 10H14" stroke="#28292A" stroke-width="2"/>
</svg>
