<svg width="48" height="48" viewBox="0 0 48 48" fill="none" xmlns="http://www.w3.org/2000/svg">
<path d="M26 21H38" stroke="#28292A" stroke-width="2"/>
<path fill-rule="evenodd" clip-rule="evenodd" d="M11.2097 10.0033L36.3083 10C38.9829 10 39.9528 10.2785 40.9305 10.8014C41.9083 11.3243 42.6757 12.0917 43.1986 13.0695L43.3832 13.4391C43.7868 14.3163 44 15.3514 44 17.6917V30.3083C44 32.9829 43.7215 33.9528 43.1986 34.9305C42.6757 35.9083 41.9083 36.6757 40.9305 37.1986L40.5609 37.3832C39.6837 37.7868 38.6486 38 36.3083 38H11.6917C9.0171 38 8.04724 37.7215 7.06946 37.1986C6.09168 36.6757 5.32432 35.9083 4.8014 34.9305L4.61683 34.5609C4.24204 33.7463 4.03143 32.7956 4.00326 30.7903L4 17.6917C4 15.0171 4.27848 14.0472 4.8014 13.0695C5.32432 12.0917 6.09168 11.3243 7.06946 10.8014L7.4391 10.6168C8.25368 10.242 9.20436 10.0314 11.2097 10.0033Z" stroke="#28292A" stroke-width="2"/>
<path fill-rule="evenodd" clip-rule="evenodd" d="M15.5254 30C18.8391 30 21.5254 27.3137 21.5254 24C21.5254 20.6863 18.8391 18 15.5254 18C12.2117 18 9.52539 20.6863 9.52539 24C9.52539 27.3137 12.2117 30 15.5254 30Z" stroke="#28292A" stroke-width="2"/>
<path d="M26 27H38" stroke="#28292A" stroke-width="2"/>
</svg>
