<svg width="48" height="48" viewBox="0 0 48 48" fill="none" xmlns="http://www.w3.org/2000/svg">
<path d="M38 14L38.9864 14.1644L39.1805 13H38V14ZM36 26V27H36.8471L36.9864 26.1644L36 26ZM12.4782 28.6082L13.4666 28.4562L12.4782 28.6082ZM9 6L9.98837 5.84794L9.85792 5H9V6ZM10.1406 15H38V13H10.1406V15ZM37.0136 13.8356L35.0136 25.8356L36.9864 26.1644L38.9864 14.1644L37.0136 13.8356ZM36 25H11.9922V27H36V25ZM17 39C17 40.1046 16.1046 41 15 41V43C17.2091 43 19 41.2091 19 39H17ZM15 41C13.8954 41 13 40.1046 13 39H11C11 41.2091 12.7909 43 15 43V41ZM13 39C13 37.8954 13.8954 37 15 37V35C12.7909 35 11 36.7909 11 39H13ZM15 37C16.1046 37 17 37.8954 17 39H19C19 36.7909 17.2091 35 15 35V37ZM35 39C35 40.1046 34.1046 41 33 41V43C35.2091 43 37 41.2091 37 39H35ZM33 41C31.8954 41 31 40.1046 31 39H29C29 41.2091 30.7909 43 33 43V41ZM31 39C31 37.8954 31.8954 37 33 37V35C30.7909 35 29 36.7909 29 39H31ZM33 37C34.1046 37 35 37.8954 35 39H37C37 36.7909 35.2091 35 33 35V37ZM13.4666 28.4562L9.98837 5.84794L8.01163 6.15206L11.4898 28.7603L13.4666 28.4562ZM9 5H4V7H9V5ZM16.4317 33H37V31H16.4317V33ZM11.4898 28.7603C11.8651 31.1994 13.9638 33 16.4317 33V31C14.951 31 13.6917 29.9197 13.4666 28.4562L11.4898 28.7603Z" fill="#28292A"/>
</svg>
