<svg width="48" height="48" viewBox="0 0 48 48" fill="none" xmlns="http://www.w3.org/2000/svg">
<path d="M30 39C31.8638 39 32.7956 39 33.5307 38.6955C34.5108 38.2895 35.2895 37.5108 35.6955 36.5307C36 35.7956 36 34.8638 36 33V31.2055C36 30.0162 36 29.4216 36.1118 28.8505C36.211 28.3438 36.3753 27.852 36.6004 27.3873C36.8541 26.8636 37.2114 26.3883 37.926 25.4376L39 24.0086L37.92 22.5686C37.2076 21.6188 36.8514 21.1439 36.5985 20.6209C36.3741 20.1568 36.2104 19.6657 36.1115 19.1597C36 18.5896 36 17.9959 36 16.8086V15C36 13.1362 36 12.2044 35.6955 11.4693C35.2895 10.4892 34.5108 9.71046 33.5307 9.30448C32.7956 9 31.8638 9 30 9M18 39C16.1362 39 15.2044 39 14.4693 38.6955C13.4892 38.2895 12.7105 37.5108 12.3045 36.5307C12 35.7956 12 34.8638 12 33V31.2055C12 30.0162 12 29.4216 11.8882 28.8505C11.789 28.3438 11.6247 27.852 11.3996 27.3873C11.1459 26.8636 10.7886 26.3883 10.074 25.4376L9 24.0086L10.08 22.5686C10.7924 21.6188 11.1486 21.1439 11.4015 20.6209C11.6259 20.1568 11.7896 19.6657 11.8885 19.1597C12 18.5896 12 17.9959 12 16.8086V15C12 13.1362 12 12.2044 12.3045 11.4693C12.7105 10.4892 13.4892 9.71046 14.4693 9.30448C15.2044 9 16.1362 9 18 9" stroke="#28292A" stroke-width="2"/>
</svg>
