<svg width="48" height="48" viewBox="0 0 48 48" fill="none" xmlns="http://www.w3.org/2000/svg">
<path fill-rule="evenodd" clip-rule="evenodd" d="M24 30.5C27.5899 30.5 30.5 27.5899 30.5 24C30.5 20.4101 27.5899 17.5 24 17.5C20.4101 17.5 17.5 20.4101 17.5 24C17.5 27.5899 20.4101 30.5 24 30.5Z" stroke="#28292A" stroke-width="2"/>
<path fill-rule="evenodd" clip-rule="evenodd" d="M17.5611 8.45545C18.2092 8.18703 18.8644 7.96209 19.5235 7.7793C20.7311 10.6275 22.2002 12.0407 23.93 12.02C25.6526 11.9995 27.1848 10.5918 28.5264 7.797C29.8276 8.15855 31.0816 8.67801 32.2594 9.34053C31.2287 12.2671 31.3167 14.3456 32.5202 15.5782C33.7285 16.8157 35.766 16.8555 38.6327 15.6975C38.9723 16.2912 39.2765 16.9135 39.5449 17.5614C39.8133 18.2095 40.0382 18.8647 40.221 19.5238C37.372 20.7326 35.9593 22.2015 35.98 23.9309C36.0006 25.6536 37.4083 27.1857 40.203 28.5273C39.8418 29.8277 39.3224 31.0816 38.66 32.2592C35.7332 31.2296 33.6545 31.3176 32.4218 32.5212C31.1843 33.7294 31.1445 35.7669 32.3025 38.6336C31.7093 38.9725 31.087 39.2767 30.4389 39.5451C29.7903 39.8138 29.1346 40.0389 28.4749 40.2217C27.2674 37.3729 25.7986 35.9603 24.0691 35.9809C22.3465 36.0015 20.8144 37.4092 19.4728 40.204C18.1714 39.8415 16.9182 39.3224 15.7411 38.6603C16.7704 35.7342 16.6824 33.6554 15.4789 32.4227C14.2704 31.185 12.2323 31.1455 9.3646 32.3042C9.02787 31.7096 8.72362 31.0872 8.45519 30.4392C8.1868 29.7912 7.96189 29.1361 7.77911 28.4771C10.6266 27.269 12.0398 25.7999 12.0191 24.0701C11.9985 22.3475 10.591 20.8155 7.79656 19.4739C8.15793 18.1739 8.67701 16.9204 9.33901 15.7432C12.2659 16.7714 14.3446 16.6834 15.5773 15.4798C16.8151 14.2713 16.8546 12.2332 15.6958 9.36553C16.2897 9.02864 16.9126 8.72411 17.5611 8.45545Z" stroke="#28292A" stroke-width="2"/>
</svg>
