<svg width="48" height="48" viewBox="0 0 48 48" fill="none" xmlns="http://www.w3.org/2000/svg">
<path d="M14 16C14 17.1796 13.4894 18.2399 12.6772 18.972L19.3334 31.3333L22.4666 19.6955C21.0184 19.094 20 17.6659 20 16C20 13.7909 21.7909 12 24 12C26.2092 12 28 13.7909 28 16C28 17.6659 26.9816 19.094 25.5334 19.6955L28.6667 31.3333L35.3228 18.972C34.5106 18.2399 34 17.1796 34 16C34 13.7909 35.7909 12 38 12C40.2092 12 42 13.7909 42 16C42 18.2091 40.2092 20 38 20V36H10L10 20C7.79088 20 6.00002 18.2091 6.00002 16C6.00002 13.7909 7.79088 12 10 12C12.2092 12 14 13.7909 14 16Z" stroke="#28292A" stroke-width="2" stroke-linejoin="round"/>
</svg>
