<svg width="48" height="48" viewBox="0 0 48 48" fill="none" xmlns="http://www.w3.org/2000/svg">
<path fill-rule="evenodd" clip-rule="evenodd" d="M12.5639 6H35.4361C36.3276 6 36.6509 6.09283 36.9768 6.26713C37.3028 6.44144 37.5585 6.69723 37.7329 7.02315C37.9072 7.34908 38 7.67237 38 8.56389V28H9.99998V8.56389C9.99998 7.67237 10.0928 7.34908 10.2671 7.02315C10.4414 6.69723 10.6972 6.44144 11.0231 6.26713C11.3491 6.09283 11.6724 6 12.5639 6Z" stroke="#28292A" stroke-width="2"/>
<path fill-rule="evenodd" clip-rule="evenodd" d="M10 28H38L41.2716 39.4506C41.5751 40.5126 40.9601 41.6196 39.898 41.923C39.7193 41.9741 39.5344 42 39.3486 42H8.65149C7.54692 42 6.65149 41.1046 6.65149 40C6.65149 39.8142 6.67739 39.6292 6.72844 39.4506L10 28Z" stroke="#28292A" stroke-width="2"/>
</svg>
