<svg width="48" height="48" viewBox="0 0 48 48" fill="none" xmlns="http://www.w3.org/2000/svg">
<path d="M4.23206 9.2C4.23206 8.0799 4.23206 7.51984 4.45004 7.09202C4.64179 6.71569 4.94775 6.40973 5.32407 6.21799C5.7519 6 6.31195 6 7.43206 6H41.0321C42.1522 6 42.7122 6 43.14 6.21799C43.5164 6.40973 43.8223 6.71569 44.0141 7.09202C44.2321 7.51984 44.2321 8.0799 44.2321 9.2V30.8C44.2321 31.9201 44.2321 32.4802 44.0141 32.908C43.8223 33.2843 43.5164 33.5903 43.14 33.782C42.7122 34 42.1522 34 41.0321 34H7.43206C6.31195 34 5.7519 34 5.32407 33.782C4.94775 33.5903 4.64179 33.2843 4.45004 32.908C4.23206 32.4802 4.23206 31.9201 4.23206 30.8V9.2Z" stroke="#28292A" stroke-width="2"/>
<path d="M16.2321 42C19.1776 42 21.5654 38.4183 21.5654 34H26.8987C26.8987 38.4183 29.2865 42 32.2321 42H16.2321Z" stroke="#28292A" stroke-width="2"/>
</svg>
