<svg width="48" height="48" viewBox="0 0 48 48" fill="none" xmlns="http://www.w3.org/2000/svg">
<path fill-rule="evenodd" clip-rule="evenodd" d="M24 42C33.9411 42 42 33.9411 42 24C42 14.0589 33.9411 6 24 6C14.0589 6 6 14.0589 6 24C6 33.9411 14.0589 42 24 42Z" stroke="#28292A" stroke-width="2"/>
<path d="M33.7458 26.25C32.725 30.6893 28.7491 33.9999 24 33.9999C19.4305 33.9999 15.5769 30.9351 14.3826 26.749" stroke="#28292A" stroke-width="2"/>
<path fill-rule="evenodd" clip-rule="evenodd" d="M20 24C21.1046 24 22 22.2091 22 20C22 17.7909 21.1046 16 20 16C18.8954 16 18 17.7909 18 20C18 22.2091 18.8954 24 20 24Z" fill="#28292A"/>
<path fill-rule="evenodd" clip-rule="evenodd" d="M28 24C29.1046 24 30 22.2091 30 20C30 17.7909 29.1046 16 28 16C26.8954 16 26 17.7909 26 20C26 22.2091 26.8954 24 28 24Z" fill="#28292A"/>
</svg>
