<svg width="48" height="48" viewBox="0 0 48 48" fill="none" xmlns="http://www.w3.org/2000/svg">
<path fill-rule="evenodd" clip-rule="evenodd" d="M24 11C18.6155 11 13.8771 14.214 10.5717 17.2652C8.90165 18.8068 7.55579 20.3453 6.6275 21.4977C6.16274 22.0746 5.80105 22.5568 5.55414 22.8968C5.43064 23.0668 5.33575 23.2015 5.27092 23.2948C5.23851 23.3415 5.2136 23.3779 5.19638 23.4032L5.17633 23.4328L5.17068 23.4412L5.16895 23.4438L5.16836 23.4447L4.79816 24L5.16836 24.5553L5.16895 24.5562L5.17068 24.5588L5.17633 24.5672L5.19638 24.5968C5.2136 24.6221 5.23851 24.6585 5.27092 24.7052C5.33575 24.7985 5.43064 24.9332 5.55414 25.1032C5.80105 25.4432 6.16274 25.9254 6.6275 26.5023C7.55579 27.6547 8.90165 29.1932 10.5717 30.7348C13.8771 33.786 18.6155 37 24 37C29.3846 37 34.1229 33.786 37.4283 30.7348C39.0984 29.1932 40.4442 27.6547 41.3725 26.5023C41.8373 25.9254 42.199 25.4432 42.4459 25.1032C42.5694 24.9332 42.6643 24.7985 42.7291 24.7052C42.7615 24.6585 42.7864 24.6221 42.8036 24.5968L42.8237 24.5672L42.8311 24.5562L42.8317 24.5553L43.2019 24L42.8317 23.4447L42.8311 23.4438L42.8237 23.4328L42.8036 23.4032C42.7864 23.3779 42.7615 23.3415 42.7291 23.2948C42.6643 23.2015 42.5694 23.0668 42.4459 22.8968C42.199 22.5568 41.8373 22.0746 41.3725 21.4977C40.4442 20.3453 39.0984 18.8068 37.4283 17.2652C34.1229 14.214 29.3846 11 24 11ZM7.22489 24C7.45283 24.3117 7.77598 24.7399 8.18501 25.2477C9.06922 26.3453 10.3484 27.8068 11.9283 29.2652C15.1229 32.214 19.3846 35 24 35C28.6155 35 32.8771 32.214 36.0717 29.2652C37.6517 27.8068 38.9308 26.3453 39.815 25.2477C40.224 24.7399 40.5472 24.3117 40.7751 24C40.5472 23.6883 40.224 23.2601 39.815 22.7523C38.9308 21.6547 37.6517 20.1932 36.0717 18.7348C32.8771 15.786 28.6155 13 24 13C19.3846 13 15.1229 15.786 11.9283 18.7348C10.3484 20.1932 9.06922 21.6547 8.18501 22.7523C7.77598 23.2601 7.45283 23.6883 7.22489 24Z" fill="#28292A"/>
<path fill-rule="evenodd" clip-rule="evenodd" d="M17 24C17 20.134 20.134 17 24 17C27.866 17 31 20.134 31 24C31 27.866 27.866 31 24 31C20.134 31 17 27.866 17 24ZM24 19C21.2386 19 19 21.2386 19 24C19 26.7614 21.2386 29 24 29C26.7614 29 29 26.7614 29 24C29 21.2386 26.7614 19 24 19Z" fill="#28292A"/>
</svg>
