<svg width="48" height="48" viewBox="0 0 48 48" fill="none" xmlns="http://www.w3.org/2000/svg">
<path fill-rule="evenodd" clip-rule="evenodd" d="M18.697 41.5241C25.9095 41.5241 31.7564 35.6772 31.7564 28.4647C31.7564 21.2522 25.9095 15.4053 18.697 15.4053C11.4845 15.4053 5.63757 21.2522 5.63757 28.4647C5.63757 35.6772 11.4845 41.5241 18.697 41.5241Z" stroke="#28292A" stroke-width="2"/>
<path d="M25.7678 30.0977C25.0272 33.3185 22.1426 35.7204 18.697 35.7204C15.3818 35.7204 12.5859 33.4968 11.7194 30.4597" stroke="#28292A" stroke-width="2"/>
<path fill-rule="evenodd" clip-rule="evenodd" d="M37.53 4C37.53 7.57814 40.3339 10.5014 43.8644 10.6923L44.2321 10.7022C40.654 10.7022 37.7308 13.5062 37.5399 17.0367L37.53 17.4044C37.53 13.7029 34.5293 10.7022 30.8278 10.7022C34.4059 10.7022 37.3291 7.89823 37.52 4.36773L37.53 4Z" stroke="#28292A" stroke-width="2"/>
<path fill-rule="evenodd" clip-rule="evenodd" d="M15.7949 28.4653C16.5963 28.4653 17.246 27.166 17.246 25.5632C17.246 23.9604 16.5963 22.6611 15.7949 22.6611C14.9935 22.6611 14.3439 23.9604 14.3439 25.5632C14.3439 27.166 14.9935 28.4653 15.7949 28.4653Z" fill="#28292A"/>
<path fill-rule="evenodd" clip-rule="evenodd" d="M21.5991 28.4653C22.4005 28.4653 23.0502 27.166 23.0502 25.5632C23.0502 23.9604 22.4005 22.6611 21.5991 22.6611C20.7977 22.6611 20.1481 23.9604 20.1481 25.5632C20.1481 27.166 20.7977 28.4653 21.5991 28.4653Z" fill="#28292A"/>
</svg>
