<svg width="48" height="48" viewBox="0 0 48 48" fill="none" xmlns="http://www.w3.org/2000/svg">
<path fill-rule="evenodd" clip-rule="evenodd" d="M17.2001 6.00329L26.4642 6L36.4642 16V36.8722C36.4642 38.6553 36.2785 39.3018 35.9299 39.9537C35.5813 40.6055 35.0697 41.1171 34.4179 41.4657C33.766 41.8144 33.1194 42 31.3364 42H17.5919C15.8089 42 15.1623 41.8144 14.5105 41.4657C13.8586 41.1171 13.3471 40.6055 12.9984 39.9537C12.6766 39.352 12.4937 38.7548 12.4675 37.264L12.4642 11.1278C12.4642 9.34473 12.6498 8.69816 12.9984 8.04631C13.3471 7.39446 13.8586 6.88288 14.5105 6.53427C15.1122 6.21247 15.7094 6.02953 17.2001 6.00329Z" stroke="#28292A" stroke-width="2"/>
<path d="M26.4642 6V12C26.4642 14.2091 28.255 16 30.4642 16H36.4642V16" stroke="#28292A" stroke-width="2"/>
</svg>
