<svg width="48" height="48" viewBox="0 0 48 48" fill="none" xmlns="http://www.w3.org/2000/svg">
<path d="M6 14.4C6 12.1598 6 11.0397 6.43597 10.184C6.81947 9.43139 7.43139 8.81947 8.18404 8.43597C9.03968 8 10.1598 8 12.4 8H16L16.1255 8.12548C16.8173 8.81729 17.1632 9.16319 17.5669 9.41056C17.9247 9.62988 18.3149 9.79149 18.7231 9.88948C19.1834 10 19.6726 10 20.651 10H35.6C37.8402 10 38.9603 10 39.816 10.436C40.5686 10.8195 41.1805 11.4314 41.564 12.184C42 13.0397 42 14.1598 42 16.4V30.4C42 33.7603 42 35.4405 41.346 36.7239C40.7708 37.8529 39.8529 38.7708 38.7239 39.346C37.4405 40 35.7603 40 32.4 40H15.6C12.2397 40 10.5595 40 9.27606 39.346C8.14708 38.7708 7.2292 37.8529 6.65396 36.7239C6 35.4405 6 33.7603 6 30.4V14.4Z" stroke="#28292A" stroke-width="2"/>
<path d="M6 22.4C6 20.1598 6 19.0397 6.43597 18.184C6.81947 17.4314 7.43139 16.8195 8.18404 16.436C9.03968 16 10.1598 16 12.4 16H35.6C37.8402 16 38.9603 16 39.816 16.436C40.5686 16.8195 41.1805 17.4314 41.564 18.184C42 19.0397 42 20.1598 42 22.4V30.4C42 33.7603 42 35.4405 41.346 36.7239C40.7708 37.8529 39.8529 38.7708 38.7239 39.346C37.4405 40 35.7603 40 32.4 40H15.6C12.2397 40 10.5595 40 9.27606 39.346C8.14708 38.7708 7.2292 37.8529 6.65396 36.7239C6 35.4405 6 33.7603 6 30.4V22.4Z" stroke="#28292A" stroke-width="2"/>
</svg>
