<svg width="48" height="48" viewBox="0 0 48 48" fill="none" xmlns="http://www.w3.org/2000/svg">
<path d="M24.6796 27.2626C24.6796 27.2626 29.6699 21.5924 33.0336 21.1581C35.9958 20.7757 42 25.8956 42 25.8956" stroke="#28292A" stroke-width="2"/>
<path fill-rule="evenodd" clip-rule="evenodd" d="M13.2002 6.00325L34.2708 6C36.9418 6 37.9103 6.27837 38.8868 6.8011C39.8633 7.32383 40.6296 8.09092 41.1519 9.06834L41.3362 9.43784C41.7393 10.3148 41.9522 11.3495 41.9522 13.6888V34.2979C41.9522 36.9715 41.6741 37.941 41.1519 38.9184C40.6296 39.8959 39.8633 40.6629 38.8868 41.1857C37.9103 41.7084 36.9418 41.9868 34.2708 41.9868H13.6814C11.0104 41.9868 10.0419 41.7084 9.06539 41.1857C8.08891 40.6629 7.32256 39.8959 6.80033 38.9184L6.61601 38.5489C6.24172 37.7347 6.03139 36.7843 6.00325 34.7797L6 13.6888C6 11.0153 6.27811 10.0458 6.80033 9.06834C7.32256 8.09092 8.08891 7.32383 9.06539 6.8011L9.43454 6.6166C10.248 6.24195 11.1974 6.03142 13.2002 6.00325Z" stroke="#28292A" stroke-width="2"/>
<path d="M6.03458 25.1257C6.03458 25.1257 12.8755 20.2765 16.1885 21.1581C23.001 22.971 37.2677 42.0002 37.2677 42.0002" stroke="#28292A" stroke-width="2"/>
</svg>
