<svg width="48" height="48" viewBox="0 0 48 48" fill="none" xmlns="http://www.w3.org/2000/svg">
<path d="M7.99997 28H40V34C40 36.2091 38.2091 38 36 38H12C9.79083 38 7.99997 36.2091 7.99997 34V28Z" stroke="#28292A" stroke-width="2"/>
<path d="M6.00003 22C6.00003 20.8954 6.89546 20 8.00003 20H40C41.1046 20 42 20.8954 42 22V28H6.00003V22Z" stroke="#28292A" stroke-width="2"/>
<path d="M24 15C24 12.2386 26.2386 10 29 10V10C31.7614 10 34 12.2386 34 15V15C34 17.7614 31.7614 20 29 20H24V15Z" stroke="#28292A" stroke-width="2"/>
<path d="M24 15C24 12.2386 21.7614 10 19 10V10C16.2386 10 14 12.2386 14 15V15C14 17.7614 16.2386 20 19 20H24V15Z" stroke="#28292A" stroke-width="2"/>
<path d="M24 20V38" stroke="#28292A" stroke-width="2"/>
</svg>
