<svg width="48" height="48" viewBox="0 0 48 48" fill="none" xmlns="http://www.w3.org/2000/svg">
<path d="M19.75 24C19.75 25.3807 18.6307 26.5 17.25 26.5C15.8693 26.5 14.75 25.3807 14.75 24C14.75 22.6193 15.8693 21.5 17.25 21.5C18.6307 21.5 19.75 22.6193 19.75 24Z" fill="#28292A"/>
<path d="M33.25 24C33.25 25.3807 32.1307 26.5 30.75 26.5C29.3693 26.5 28.25 25.3807 28.25 24C28.25 22.6193 29.3693 21.5 30.75 21.5C32.1307 21.5 33.25 22.6193 33.25 24Z" fill="#28292A"/>
<path d="M19.75 10.5C19.75 11.8807 18.6307 13 17.25 13C15.8693 13 14.75 11.8807 14.75 10.5C14.75 9.11929 15.8693 8 17.25 8C18.6307 8 19.75 9.11929 19.75 10.5Z" fill="#28292A"/>
<path d="M33.25 10.5C33.25 11.8807 32.1307 13 30.75 13C29.3693 13 28.25 11.8807 28.25 10.5C28.25 9.11929 29.3693 8 30.75 8C32.1307 8 33.25 9.11929 33.25 10.5Z" fill="#28292A"/>
<path d="M19.75 37.5C19.75 38.8807 18.6307 40 17.25 40C15.8693 40 14.75 38.8807 14.75 37.5C14.75 36.1193 15.8693 35 17.25 35C18.6307 35 19.75 36.1193 19.75 37.5Z" fill="#28292A"/>
<path d="M33.25 37.5C33.25 38.8807 32.1307 40 30.75 40C29.3693 40 28.25 38.8807 28.25 37.5C28.25 36.1193 29.3693 35 30.75 35C32.1307 35 33.25 36.1193 33.25 37.5Z" fill="#28292A"/>
</svg>
