<svg width="48" height="48" viewBox="0 0 48 48" fill="none" xmlns="http://www.w3.org/2000/svg">
<path fill-rule="evenodd" clip-rule="evenodd" d="M15.8589 9.96304C15.7354 8.79305 22.9686 3.3816 28.8654 9.27848L35.0265 15.4395L34.7175 16.272C34.4541 16.9816 34.6284 17.7796 35.1636 18.3149L36.9416 20.0929C37.4758 20.6271 38.272 20.8018 38.9808 20.5403L39.8184 20.2314L41.1875 21.6005C41.9436 22.3566 41.9436 23.5826 41.1875 24.3387L37.0801 28.4461C36.324 29.2022 35.098 29.2022 34.3419 28.4461L32.9728 27.077L33.2817 26.2394C33.5432 25.5306 33.3685 24.7344 32.8343 24.2002L30.9311 22.297C30.5231 21.8891 29.9371 21.7257 29.3846 21.853L29.1794 21.9145C28.571 22.1403 27.8867 21.9909 27.4278 21.5319L24.9287 19.0329C24.4066 18.5107 24.2269 17.7369 24.4656 17.038L25.2271 14.7571C25.3079 14.5071 25.3802 14.2787 25.4443 14.072C22.7483 9.97201 15.9896 11.2015 15.8589 9.96304Z" stroke="#28292A" stroke-width="2"/>
<path fill-rule="evenodd" clip-rule="evenodd" d="M21.3353 20.9155L25.4426 25.0229L13.1088 39.8234C12.4242 40.6449 11.2033 40.7559 10.3818 40.0714L10.2522 39.953L6.40512 36.1059C5.64898 35.3498 5.64898 34.1238 6.40512 33.3677L6.53469 33.2493L21.3353 20.9155Z" stroke="#28292A" stroke-width="2"/>
</svg>
