<svg width="48" height="48" viewBox="0 0 48 48" fill="none" xmlns="http://www.w3.org/2000/svg">
<path fill-rule="evenodd" clip-rule="evenodd" d="M24 21C28.4183 21 32 17.4183 32 13C32 8.58172 28.4183 5 24 5C19.5817 5 16 8.58172 16 13C16 17.4183 19.5817 21 24 21Z" stroke="#28292A" stroke-width="2"/>
<path fill-rule="evenodd" clip-rule="evenodd" d="M21.4428 26.0033L25.9725 26C29.3991 26 30.8667 26.3147 32.3294 26.9458C33.792 27.5769 35.0057 28.5245 35.9727 29.7904C36.9397 31.0563 37.601 32.4038 38.432 35.7281L40 42H8L9.56797 35.7281C10.399 32.4038 11.0603 31.0563 12.0273 29.7904C12.9943 28.5245 14.208 27.5769 15.6706 26.9458C17.0472 26.3518 18.4283 26.0381 21.4428 26.0033V26.0033Z" stroke="#28292A" stroke-width="2"/>
</svg>
