<svg width="48" height="48" viewBox="0 0 48 48" fill="none" xmlns="http://www.w3.org/2000/svg">
<path d="M9.80012 6.00217L9.79996 5.00207L9.78606 5.00227L9.80012 6.00217ZM23.8472 6V5H23.8471L23.8472 6ZM26.9246 6.53407L27.3965 5.65245V5.65245L26.9246 6.53407ZM28.4346 8.04556L29.3295 7.59918C29.3253 7.59083 29.321 7.58254 29.3166 7.57431L28.4346 8.04556ZM28.5575 8.2919L29.4661 7.87425C29.4617 7.8646 29.4571 7.85502 29.4523 7.84551L28.5575 8.2919ZM7.0436 29.4571L6.57164 30.3388L7.0436 29.4571ZM5.53356 27.9457L4.63872 28.392C4.64288 28.4004 4.64716 28.4087 4.65156 28.4169L5.53356 27.9457ZM5.41067 27.6993L4.50206 28.117C4.5065 28.1266 4.51109 28.1362 4.51583 28.1457L5.41067 27.6993ZM5.00217 25.1865L4.00207 25.1866L4.00227 25.2005L5.00217 25.1865ZM5 11.1259H4V11.126L5 11.1259ZM5.53356 8.04556L6.41556 8.51681V8.51681L5.53356 8.04556ZM7.0436 6.53407L6.59652 5.63957C6.58817 5.64375 6.57988 5.64804 6.57164 5.65245L7.0436 6.53407ZM7.2897 6.41107L6.87138 5.50277C6.86172 5.50721 6.85213 5.51182 6.84262 5.51657L7.2897 6.41107ZM28.9682 19.2371L28.3193 19.998C28.6161 20.2511 29.033 20.3085 29.3872 20.1451C29.7414 19.9816 29.9682 19.6271 29.9682 19.2371H28.9682ZM25.8452 29.9999L25.8388 30.9999C26.2187 31.0023 26.5671 30.7892 26.7381 30.45C26.9091 30.1108 26.8731 29.704 26.6453 29.4001L25.8452 29.9999ZM23.0224 16.1056L22.8943 15.1138L23.0224 16.1056ZM11.7923 16.1052L11.5352 17.0715L11.7923 16.1052ZM9.80027 7.00217L23.8474 7L23.8471 5L9.79996 5.00217L9.80027 7.00217ZM23.8472 7C25.5468 7 26.006 7.17658 26.4526 7.41569L27.3965 5.65245C26.5412 5.19459 25.709 5 23.8472 5V7ZM26.4526 7.41569C26.9293 7.67086 27.2975 8.0394 27.5526 8.51681L29.3166 7.57431C28.8754 6.74849 28.2219 6.09425 27.3965 5.65245L26.4526 7.41569ZM27.5398 8.49194L27.6627 8.73828L29.4523 7.84551L29.3295 7.59918L27.5398 8.49194ZM27.6489 8.70955C27.828 9.09911 27.9682 9.61764 27.9682 11.1259H29.9682C29.9682 9.51497 29.8245 8.65391 29.4661 7.87425L27.6489 8.70955ZM23.8472 28.9912H10.121V30.9912H23.8472V28.9912ZM10.121 28.9912C8.42142 28.9912 7.96223 28.8146 7.51555 28.5755L6.57164 30.3388C7.42694 30.7966 8.25917 30.9912 10.121 30.9912V28.9912ZM7.51555 28.5755C7.03889 28.3204 6.67063 27.9518 6.41556 27.4744L4.65156 28.4169C5.09278 29.2427 5.74633 29.897 6.57164 30.3388L7.51555 28.5755ZM6.4284 27.4993L6.30551 27.2529L4.51583 28.1457L4.63872 28.392L6.4284 27.4993ZM6.31928 27.2817C6.15298 26.9199 6.01993 26.4452 6.00207 25.1725L4.00227 25.2005C4.02192 26.6006 4.16931 27.393 4.50206 28.117L6.31928 27.2817ZM6.00217 25.1863L6 11.1257L4 11.126L4.00217 25.1866L6.00217 25.1863ZM6 11.1259C6 9.42443 6.17646 8.96432 6.41556 8.51681L4.65156 7.57431C4.19435 8.43003 4 9.26259 4 11.1259H6ZM6.41556 8.51681C6.67063 8.0394 7.03889 7.67086 7.51555 7.41569L6.57164 5.65245C5.74633 6.09425 5.09278 6.74849 4.65156 7.57431L6.41556 8.51681ZM7.49067 7.42857L7.73677 7.30556L6.84262 5.51657L6.59652 5.63957L7.49067 7.42857ZM7.70801 7.31937C8.06905 7.15309 8.54282 7.01995 9.81418 7.00207L9.78606 5.00227C8.38712 5.02194 7.595 5.16951 6.87138 5.50277L7.70801 7.31937ZM27.9682 11.1259V19.2371H29.9682V11.1259H27.9682ZM25.8452 29.9999C25.8515 28.9999 25.8515 28.9999 25.8515 28.9999C25.8514 28.9999 25.8514 28.9999 25.8514 28.9999C25.8514 28.9999 25.8513 28.9999 25.8512 28.9999C25.851 28.9999 25.8508 28.9999 25.8505 28.9999C25.8498 28.9999 25.8488 28.9999 25.8475 28.9999C25.8448 28.9999 25.8409 28.9999 25.8358 28.9998C25.8255 28.9998 25.8104 28.9997 25.791 28.9996C25.7521 28.9993 25.6959 28.999 25.6266 28.9986C25.4878 28.9978 25.2963 28.9967 25.0852 28.9956C24.6639 28.9934 24.162 28.9912 23.8472 28.9912V30.9912C24.1561 30.9912 24.6531 30.9934 25.0749 30.9956C25.2854 30.9966 25.4764 30.9977 25.6148 30.9985C25.684 30.9989 25.74 30.9993 25.7788 30.9995C25.7981 30.9996 25.8132 30.9997 25.8233 30.9998C25.8284 30.9998 25.8323 30.9998 25.8349 30.9999C25.8362 30.9999 25.8372 30.9999 25.8379 30.9999C25.8382 30.9999 25.8384 30.9999 25.8386 30.9999C25.8387 30.9999 25.8387 30.9999 25.8388 30.9999C25.8388 30.9999 25.8388 30.9999 25.8388 30.9999C25.8388 30.9999 25.8388 30.9999 25.8452 29.9999ZM17.453 20.1752C18.2037 20.8359 18.2036 20.836 18.2036 20.8361C18.2035 20.8361 18.2035 20.8362 18.2035 20.8362C18.2034 20.8362 18.2035 20.8362 18.2035 20.8361C18.2037 20.8359 18.204 20.8355 18.2046 20.8349C18.2057 20.8337 18.2075 20.8316 18.2102 20.8286C18.2155 20.8227 18.2238 20.8133 18.2351 20.8007C18.2578 20.7755 18.2921 20.7374 18.3372 20.6883C18.4274 20.59 18.5602 20.4476 18.7269 20.2751C19.0613 19.9292 19.5277 19.4671 20.0584 18.9988C20.592 18.528 21.1737 18.0659 21.7391 17.7097C22.3222 17.3425 22.8038 17.1421 23.1504 17.0973L22.8943 15.1138C22.1197 15.2138 21.3446 15.5945 20.6732 16.0175C19.9841 16.4515 19.3136 16.9887 18.7352 17.4992C18.1539 18.0121 17.6484 18.5132 17.2889 18.8851C17.1087 19.0715 16.964 19.2267 16.8635 19.3362C16.8132 19.391 16.774 19.4344 16.7468 19.4648C16.7331 19.4799 16.7226 19.4918 16.7151 19.5002C16.7114 19.5043 16.7085 19.5077 16.7063 19.5101C16.7053 19.5113 16.7044 19.5123 16.7037 19.513C16.7034 19.5134 16.7031 19.5137 16.7029 19.514C16.7028 19.5141 16.7026 19.5142 16.7026 19.5143C16.7025 19.5145 16.7024 19.5146 17.453 20.1752ZM23.1504 17.0973C23.3669 17.0694 23.7779 17.141 24.387 17.4049C24.9632 17.6545 25.591 18.0199 26.1866 18.4114C26.7778 18.7999 27.3136 19.1985 27.703 19.5013C27.897 19.6522 28.0532 19.7782 28.16 19.8657C28.2134 19.9094 28.2543 19.9434 28.2813 19.966C28.2949 19.9773 28.3049 19.9858 28.3113 19.9912C28.3145 19.9939 28.3168 19.9958 28.3181 19.997C28.3188 19.9975 28.3192 19.9979 28.3194 19.9981C28.3195 19.9981 28.3195 19.9982 28.3195 19.9982C28.3195 19.9981 28.3195 19.9981 28.3195 19.9981C28.3194 19.998 28.3193 19.998 28.9682 19.2371C29.6171 18.4762 29.6169 18.4761 29.6168 18.476C29.6167 18.4759 29.6166 18.4758 29.6165 18.4757C29.6162 18.4754 29.6159 18.4752 29.6155 18.4748C29.6147 18.4742 29.6137 18.4733 29.6125 18.4723C29.61 18.4702 29.6065 18.4672 29.6021 18.4635C29.5934 18.4561 29.5809 18.4456 29.5648 18.4322C29.5328 18.4053 29.4864 18.3668 29.4274 18.3185C29.3093 18.2217 29.1398 18.0851 28.9307 17.9225C28.5138 17.5983 27.9335 17.1662 27.2851 16.7401C26.641 16.3167 25.9059 15.8833 25.1821 15.5697C24.4913 15.2704 23.6652 15.0143 22.8943 15.1138L23.1504 17.0973ZM5.02304 18.7502C5.60134 19.5661 5.60123 19.5661 5.60114 19.5662C5.60114 19.5662 5.60106 19.5663 5.60105 19.5663C5.60102 19.5663 5.60106 19.5663 5.60117 19.5662C5.60138 19.566 5.60187 19.5657 5.60262 19.5652C5.60414 19.5641 5.60673 19.5623 5.61037 19.5597C5.61765 19.5546 5.62913 19.5466 5.6446 19.5359C5.67554 19.5144 5.7224 19.4822 5.78351 19.4408C5.90579 19.3581 6.08468 19.2394 6.30682 19.0981C6.75255 18.8146 7.36538 18.4449 8.03993 18.0949C8.71924 17.7425 9.43444 17.4241 10.089 17.2287C10.7719 17.0247 11.2535 16.9966 11.5352 17.0715L12.0495 15.1388C11.2268 14.9199 10.3101 15.0754 9.51669 15.3123C8.69491 15.5577 7.85584 15.9373 7.11891 16.3196C6.37722 16.7044 5.71186 17.1062 5.23346 17.4105C4.99353 17.5631 4.79887 17.6923 4.66312 17.7841C4.59521 17.83 4.54194 17.8667 4.50499 17.8923C4.48652 17.9051 4.47212 17.9152 4.46201 17.9222C4.45695 17.9258 4.45297 17.9286 4.45008 17.9306C4.44864 17.9317 4.44747 17.9325 4.44657 17.9331C4.44613 17.9334 4.44575 17.9337 4.44544 17.9339C4.44529 17.934 4.44511 17.9341 4.44504 17.9342C4.44488 17.9343 4.44473 17.9344 5.02304 18.7502ZM11.5352 17.0715C12.4199 17.307 13.7108 18.1755 15.24 19.5337C16.7281 20.8555 18.3131 22.5216 19.7736 24.1691C21.2312 25.8134 22.5504 27.4226 23.506 28.622C23.9834 29.2212 24.3693 29.7171 24.6353 30.0626C24.7683 30.2353 24.8713 30.3703 24.9408 30.4618C24.9755 30.5076 25.0019 30.5425 25.0194 30.5657C25.0282 30.5773 25.0347 30.586 25.039 30.5917C25.0412 30.5946 25.0427 30.5967 25.0437 30.598C25.0442 30.5987 25.0446 30.5992 25.0448 30.5995C25.0449 30.5996 25.045 30.5997 25.045 30.5998C25.0451 30.5998 25.045 30.5998 25.8452 29.9999C26.6453 29.4001 26.6452 29.3999 26.645 29.3998C26.645 29.3996 26.6448 29.3994 26.6446 29.3992C26.6442 29.3987 26.6437 29.398 26.6431 29.3972C26.6418 29.3954 26.6399 29.3929 26.6375 29.3897C26.6326 29.3832 26.6254 29.3737 26.6161 29.3613C26.5973 29.3364 26.5697 29.2999 26.5337 29.2524C26.4616 29.1575 26.3558 29.0189 26.2199 28.8423C25.9481 28.4893 25.5554 27.9846 25.0702 27.3757C24.1005 26.1586 22.758 24.5208 21.2702 22.8424C19.7852 21.1673 18.1408 19.4352 16.5682 18.0384C15.0367 16.6781 13.4356 15.5076 12.0495 15.1388L11.5352 17.0715Z" fill="#28292A"/>
<path d="M35.3269 23.1973V42.928" stroke="#28292A" stroke-width="2"/>
<path d="M43 26.4857V23.1973H27.6538V26.4857" stroke="#28292A" stroke-width="2"/>
<path d="M32.0385 42.9287H38.6154" stroke="#28292A" stroke-width="2"/>
</svg>
