<svg width="48" height="48" viewBox="0 0 48 48" fill="none" xmlns="http://www.w3.org/2000/svg">
<path fill-rule="evenodd" clip-rule="evenodd" d="M18.8919 18.8919C22.4519 18.8919 25.3378 16.0059 25.3378 12.4459C25.3378 8.88595 22.4519 6 18.8919 6C15.3319 6 12.4459 8.88595 12.4459 12.4459C12.4459 16.0059 15.3319 18.8919 18.8919 18.8919Z" stroke="#28292A" stroke-width="2"/>
<path fill-rule="evenodd" clip-rule="evenodd" d="M34 43C38.9706 43 43 38.9706 43 34C43 29.0294 38.9706 25 34 25C29.0294 25 25 29.0294 25 34C25 38.9706 29.0294 43 34 43Z" stroke="#28292A" stroke-width="2"/>
<path d="M29 34H39" stroke="#28292A" stroke-width="2"/>
<path d="M34 29V39" stroke="#28292A" stroke-width="2"/>
<path d="M24.8552 23.3994C23.8662 23.0802 22.6694 22.9209 20.4812 22.9209L16.8314 22.9235C14.4025 22.9516 13.2897 23.2043 12.1806 23.683C11.002 24.1915 10.0241 24.955 9.24496 25.975C8.46579 26.995 7.93301 28.0807 7.26338 30.7593L6 35.8128H20.1162" stroke="#28292A" stroke-width="2"/>
</svg>
