<svg width="48" height="48" viewBox="0 0 48 48" fill="none" xmlns="http://www.w3.org/2000/svg">
<path fill-rule="evenodd" clip-rule="evenodd" d="M19.2097 6.00326L28.3083 6C30.9829 6 31.9528 6.27848 32.9305 6.8014C33.9083 7.32432 34.6757 8.09168 35.1986 9.06946L35.3832 9.4391C35.7868 10.3163 36 11.3514 36 13.6917V34.3083C36 36.9829 35.7215 37.9528 35.1986 38.9305C34.6757 39.9083 33.9083 40.6757 32.9305 41.1986L32.5609 41.3832C31.6837 41.7868 30.6486 42 28.3083 42H19.6917C17.0171 42 16.0472 41.7215 15.0695 41.1986C14.0917 40.6757 13.3243 39.9083 12.8014 38.9305L12.6168 38.5609C12.242 37.7463 12.0314 36.7956 12.0033 34.7903L12 13.6917C12 11.0171 12.2785 10.0472 12.8014 9.06946C13.3243 8.09168 14.0917 7.32432 15.0695 6.8014L15.4391 6.61683C16.2537 6.24204 17.2044 6.03143 19.2097 6.00326V6.00326Z" stroke="#28292A" stroke-width="2"/>
<path fill-rule="evenodd" clip-rule="evenodd" d="M29.8 28.0584C29.5826 28.566 29.3253 29.0332 29.0272 29.4628C28.6208 30.0484 28.2881 30.4538 28.0317 30.6789C27.6342 31.0484 27.2083 31.2376 26.7523 31.2484C26.4249 31.2484 26.03 31.1542 25.5704 30.9632C25.1093 30.7731 24.6856 30.6789 24.2981 30.6789C23.8918 30.6789 23.4559 30.7731 22.9898 30.9632C22.5229 31.1542 22.1468 31.2538 21.8592 31.2636C21.4219 31.2825 20.986 31.0879 20.5509 30.6789C20.2732 30.4341 19.9258 30.0144 19.5097 29.4198C19.0632 28.7848 18.6962 28.0485 18.4086 27.2091C18.1007 26.3024 17.9463 25.4244 17.9463 24.5744C17.9463 23.6008 18.1544 22.761 18.5714 22.0572C18.899 21.492 19.3349 21.0461 19.8805 20.7187C20.4261 20.3914 21.0156 20.2246 21.6504 20.2139C21.9977 20.2139 22.4533 20.3225 23.0193 20.536C23.5838 20.7501 23.9462 20.8587 24.1051 20.8587C24.2239 20.8587 24.6266 20.7317 25.3091 20.4786C25.9546 20.2438 26.4994 20.1466 26.9457 20.1849C28.155 20.2835 29.0635 20.7654 29.6678 21.6335C28.5862 22.2959 28.0512 23.2236 28.0618 24.4138C28.0716 25.3409 28.4043 26.1123 29.0582 26.7248C29.3546 27.0091 29.6855 27.2288 30.0537 27.3849C29.9739 27.619 29.8896 27.8432 29.8 28.0584Z" fill="#28292A"/>
<path fill-rule="evenodd" clip-rule="evenodd" d="M27.0264 17.026C27.0264 17.7526 26.7638 18.4311 26.2403 19.059C25.6086 19.8055 24.8445 20.2369 24.0159 20.1688C24.0053 20.0817 23.9992 19.9899 23.9992 19.8935C23.9992 19.196 24.2996 18.4494 24.8331 17.8391C25.0995 17.53 25.4382 17.2731 25.849 17.0681C26.2589 16.8661 26.6466 16.7545 27.0113 16.7354C27.022 16.8325 27.0264 16.9296 27.0264 17.026V17.026Z" fill="#28292A"/>
</svg>
