<svg width="48" height="48" viewBox="0 0 48 48" fill="none" xmlns="http://www.w3.org/2000/svg">
<path fill-rule="evenodd" clip-rule="evenodd" d="M25.4872 26.5441C29.6971 28.9779 35.174 28.3938 38.7758 24.792C43.0747 20.4931 43.0747 13.5231 38.7758 9.22419C34.4769 4.92527 27.507 4.92527 23.208 9.22419C20.2248 12.2074 19.3118 16.477 20.469 20.2475L6.00002 34.7165V42H13.2835L15.5775 39.706C14.3597 38.3931 14.3893 36.341 15.6663 35.064C16.9434 33.787 18.9954 33.7573 20.3084 34.9751L23.118 32.1656C21.9002 30.8526 21.9298 28.8005 23.2068 27.5235C23.8384 26.8919 24.6596 26.5654 25.4872 26.5441ZM33.4378 19.4539C32.087 20.8047 29.8969 20.8047 28.5461 19.4539C27.1953 18.1031 27.1953 15.913 28.5461 14.5622C29.8969 13.2114 32.087 13.2114 33.4378 14.5622C34.7886 15.913 34.7886 18.1031 33.4378 19.4539Z" stroke="#28292A" stroke-width="2"/>
</svg>
