<svg width="48" height="48" viewBox="0 0 48 48" fill="none" xmlns="http://www.w3.org/2000/svg">
<path d="M24.54 18.8228C25.7337 19.1229 26.8641 19.7397 27.7977 20.6733C30.5495 23.4252 30.5495 27.8868 27.7977 30.6386L19.4933 38.943C16.7415 41.6948 12.2799 41.6948 9.52805 38.943C6.77621 36.1912 6.77621 31.7296 9.52805 28.9777C11.9605 26.5453 13.7849 24.7209 15.0011 23.5047" stroke="#28292A" stroke-width="2"/>
<path d="M24.3907 29.1841C23.1971 28.884 22.0667 28.2671 21.1331 27.3335C18.3813 24.5817 18.3813 20.1201 21.1331 17.3683L29.4375 9.06387C32.1893 6.31204 36.6509 6.31204 39.4027 9.06387C42.1546 11.8157 42.1546 16.2773 39.4027 19.0291C36.9703 21.4616 35.1459 23.286 33.9297 24.5022" stroke="#28292A" stroke-width="2"/>
</svg>
