<svg width="48" height="48" viewBox="0 0 48 48" fill="none" xmlns="http://www.w3.org/2000/svg">
<path fill-rule="evenodd" clip-rule="evenodd" d="M29.8 21.0584C29.5826 21.566 29.3253 22.0332 29.0272 22.4628C28.6208 23.0484 28.2881 23.4538 28.0317 23.6789C27.6342 24.0484 27.2083 24.2376 26.7523 24.2484C26.4249 24.2484 26.03 24.1542 25.5704 23.9632C25.1093 23.7731 24.6856 23.6789 24.2981 23.6789C23.8918 23.6789 23.4559 23.7731 22.9898 23.9632C22.5229 24.1542 22.1468 24.2538 21.8592 24.2636C21.4219 24.2825 20.986 24.0879 20.5509 23.6789C20.2732 23.4341 19.9258 23.0144 19.5097 22.4198C19.0632 21.7848 18.6962 21.0485 18.4086 20.2091C18.1007 19.3024 17.9463 18.4244 17.9463 17.5744C17.9463 16.6008 18.1544 15.761 18.5714 15.0572C18.899 14.492 19.3349 14.0461 19.8805 13.7187C20.4261 13.3914 21.0156 13.2246 21.6504 13.2139C21.9977 13.2139 22.4533 13.3225 23.0193 13.536C23.5838 13.7501 23.9462 13.8587 24.1051 13.8587C24.2239 13.8587 24.6266 13.7317 25.3091 13.4786C25.9546 13.2438 26.4994 13.1466 26.9457 13.1849C28.155 13.2835 29.0635 13.7654 29.6678 14.6335C28.5862 15.2959 28.0512 16.2236 28.0618 17.4138C28.0716 18.3409 28.4043 19.1123 29.0582 19.7248C29.3546 20.0091 29.6855 20.2288 30.0537 20.3849C29.9739 20.619 29.8896 20.8432 29.8 21.0584Z" fill="#28292A"/>
<path fill-rule="evenodd" clip-rule="evenodd" d="M27.0264 10.026C27.0264 10.7526 26.7637 11.4311 26.2403 12.059C25.6085 12.8055 24.8444 13.2369 24.0158 13.1688C24.0053 13.0817 23.9991 12.9899 23.9991 12.8935C23.9991 12.196 24.2996 11.4494 24.8331 10.8391C25.0994 10.53 25.4382 10.2731 25.849 10.0681C26.2589 9.86614 26.6466 9.75447 27.0113 9.73535C27.0219 9.83249 27.0264 9.92963 27.0264 10.026V10.026Z" fill="#28292A"/>
<path fill-rule="evenodd" clip-rule="evenodd" d="M12.5639 6H35.4361C36.3276 6 36.6509 6.09283 36.9768 6.26713C37.3028 6.44144 37.5586 6.69723 37.7329 7.02315C37.9072 7.34908 38 7.67237 38 8.56389V28H10V8.56389C10 7.67237 10.0928 7.34908 10.2671 7.02315C10.4414 6.69723 10.6972 6.44144 11.0232 6.26713C11.3491 6.09283 11.6724 6 12.5639 6Z" stroke="#28292A" stroke-width="2"/>
<path fill-rule="evenodd" clip-rule="evenodd" d="M10 28H38L41.2716 39.4506C41.5751 40.5126 40.9601 41.6196 39.898 41.923C39.7193 41.9741 39.5344 42 39.3486 42H8.65149C7.54692 42 6.65149 41.1046 6.65149 40C6.65149 39.8142 6.67739 39.6292 6.72844 39.4506L10 28Z" stroke="#28292A" stroke-width="2"/>
</svg>
