<svg width="48" height="48" viewBox="0 0 48 48" fill="none" xmlns="http://www.w3.org/2000/svg">
<path d="M16 20C16 22.2091 14.2091 24 12 24C9.79086 24 8 22.2091 8 20L11.3369 8.32089C11.5746 7.48895 11.6934 7.07299 11.9361 6.76423C12.1502 6.49171 12.4315 6.27953 12.7524 6.14847C13.1159 6 13.5485 6 14.4138 6H18M16 20C16 22.2091 17.7909 24 20 24C22.2091 24 24 22.2091 24 20M16 20L18 6M24 20C24 22.2091 25.7909 24 28 24C30.2091 24 32 22.2091 32 20M24 20V6M32 20C32 22.2091 33.7909 24 36 24C38.2091 24 40 22.2091 40 20L36.6631 8.32089C36.4254 7.48898 36.3066 7.07298 36.0639 6.76423C35.8498 6.49171 35.5685 6.27953 35.2476 6.14847C34.8841 6 34.4515 6 33.5862 6H30M32 20L30 6M18 6H24M24 6H30" stroke="#28292A" stroke-width="2" stroke-linejoin="round"/>
<path d="M12 24V42H22V34C22 32.8954 22.8954 32 24 32C25.1046 32 26 32.8954 26 34V42H36V24" stroke="#28292A" stroke-width="2"/>
</svg>
