<svg width="48" height="48" viewBox="0 0 48 48" fill="none" xmlns="http://www.w3.org/2000/svg">
<path d="M11.1633 18.6093L21.7726 29.2186L42.9912 8" stroke="#28292A" stroke-width="2"/>
<path d="M30.956 10.654C29.6725 10 27.9924 10 24.6321 10H15.8321C12.4717 10 10.7916 10 9.50811 10.654C8.37914 11.2292 7.46126 12.1471 6.88602 13.2761C6.23206 14.5595 6.23206 16.2397 6.23206 19.6V28.4C6.23206 31.7603 6.23206 33.4405 6.88602 34.7239C7.46126 35.8529 8.37914 36.7708 9.50811 37.346C10.7916 38 12.4717 38 15.8321 38H24.6321C27.9924 38 29.6725 38 30.956 37.346C32.085 36.7708 33.0029 35.8529 33.5781 34.7239C34.2321 33.4405 34.2321 31.7603 34.2321 28.4V26" stroke="#28292A" stroke-width="2"/>
</svg>
