<svg width="48" height="48" viewBox="0 0 48 48" fill="none" xmlns="http://www.w3.org/2000/svg">
<path d="M11.2761 39.346L10.8221 40.237H10.8221L11.2761 39.346ZM8.65396 36.7239L9.54497 36.27H9.54497L8.65396 36.7239ZM31.346 36.7239L32.237 37.1779L31.346 36.7239ZM28.7239 39.346L29.1779 40.237L28.7239 39.346ZM11.2761 16.654L10.8221 15.763L11.2761 16.654ZM8.65396 19.2761L7.76295 18.8221H7.76295L8.65396 19.2761ZM40 8H41V7H40V8ZM17.6 17H22.4V15H17.6V17ZM31 25.6V30.4H33V25.6H31ZM22.4 39H17.6V41H22.4V39ZM9 30.4V25.6H7V30.4H9ZM17.6 39C15.9033 39 14.691 38.9992 13.7406 38.9216C12.802 38.8449 12.2073 38.6982 11.73 38.455L10.8221 40.237C11.6283 40.6478 12.5154 40.8281 13.5778 40.9149C14.6285 41.0008 15.9363 41 17.6 41V39ZM7 30.4C7 32.0637 6.99922 33.3715 7.08507 34.4222C7.17186 35.4846 7.35217 36.3717 7.76295 37.1779L9.54497 36.27C9.30179 35.7927 9.15512 35.198 9.07842 34.2594C9.00078 33.309 9 32.0967 9 30.4H7ZM11.73 38.455C10.7892 37.9757 10.0243 37.2108 9.54497 36.27L7.76295 37.1779C8.43407 38.4951 9.50493 39.5659 10.8221 40.237L11.73 38.455ZM31 30.4C31 32.0967 30.9992 33.309 30.9216 34.2594C30.8449 35.198 30.6982 35.7927 30.455 36.27L32.237 37.1779C32.6478 36.3717 32.8281 35.4846 32.9149 34.4222C33.0008 33.3715 33 32.0637 33 30.4H31ZM22.4 41C24.0637 41 25.3715 41.0008 26.4222 40.9149C27.4846 40.8281 28.3717 40.6478 29.1779 40.237L28.27 38.455C27.7927 38.6982 27.198 38.8449 26.2594 38.9216C25.309 38.9992 24.0967 39 22.4 39V41ZM30.455 36.27C29.9757 37.2108 29.2108 37.9757 28.27 38.455L29.1779 40.237C30.4951 39.5659 31.5659 38.4951 32.237 37.1779L30.455 36.27ZM17.6 15C15.9363 15 14.6285 14.9992 13.5778 15.0851C12.5154 15.1719 11.6283 15.3522 10.8221 15.763L11.73 17.545C12.2073 17.3018 12.802 17.1551 13.7406 17.0784C14.691 17.0008 15.9033 17 17.6 17V15ZM9 25.6C9 23.9033 9.00078 22.691 9.07842 21.7406C9.15512 20.802 9.30179 20.2073 9.54497 19.73L7.76295 18.8221C7.35217 19.6283 7.17186 20.5154 7.08507 21.5778C6.99922 22.6285 7 23.9363 7 25.6H9ZM10.8221 15.763C9.50493 16.4341 8.43407 17.5049 7.76295 18.8221L9.54497 19.73C10.0243 18.7892 10.7892 18.0243 11.73 17.545L10.8221 15.763ZM18.7071 30.7071L40.7071 8.70711L39.2929 7.29289L17.2929 29.2929L18.7071 30.7071ZM30 9H40V7H30V9ZM39 8V18H41V8H39Z" fill="#28292A"/>
</svg>
