<svg width="48" height="48" viewBox="0 0 48 48" fill="none" xmlns="http://www.w3.org/2000/svg">
<path d="M14 14H44M14 24H44M14 34H44" stroke="#28292A" stroke-width="2"/>
<path d="M10 10.2471H8.12338L6.27606 11.376V13.106L7.91812 12.1237H7.96211V17.7536H10V10.2471Z" fill="#28292A"/>
<path d="M5.89516 27.8055H11.657V26.1781H8.72478V26.1341L9.42852 25.5477C11.1402 24.1218 11.5764 23.3814 11.5764 22.5128C11.5764 21.1126 10.4292 20.1963 8.62948 20.1963C6.88113 20.1963 5.74488 21.1676 5.74854 22.7473H7.68383C7.68017 22.1169 8.06502 21.765 8.62948 21.765C9.19028 21.765 9.5898 22.1132 9.5898 22.6887C9.5898 23.2202 9.24892 23.5647 8.69546 24.0229L5.89516 26.3394V27.8055Z" fill="#28292A"/>
<path d="M8.66606 37.7118C10.5024 37.7118 11.7962 36.7772 11.7889 35.454C11.7962 34.534 11.1805 33.8852 9.97091 33.7533V33.6946C10.8652 33.5993 11.5177 33.0239 11.5103 32.1845C11.5177 30.92 10.3448 30 8.68072 30C6.98001 30 5.77046 30.9713 5.76313 32.3458H7.71308C7.72041 31.8913 8.11993 31.5688 8.68072 31.5688C9.19386 31.5688 9.55307 31.8803 9.54574 32.3165C9.55307 32.771 9.12789 33.0935 8.51945 33.0935H7.75706V34.501H8.51945C9.1792 34.501 9.64103 34.8236 9.6337 35.2781C9.64103 35.7436 9.24518 36.0698 8.68072 36.0698C8.09427 36.0698 7.67642 35.7582 7.66909 35.322H5.61652C5.62385 36.7222 6.88838 37.7118 8.66606 37.7118Z" fill="#28292A"/>
</svg>
