<svg width="48" height="48" viewBox="0 0 48 48" fill="none" xmlns="http://www.w3.org/2000/svg">
<path fill-rule="evenodd" clip-rule="evenodd" d="M35.0817 27.7857L41.2313 33.9353C42.0204 34.7244 42.0204 36.0038 41.2313 36.793L38.3735 39.6507C32.9482 45.076 24.0479 39.4955 16.6207 32.1833L16.217 31.7828C8.71095 24.2767 2.8252 15.1503 8.34917 9.62634L11.2069 6.76861C11.996 5.97947 13.2755 5.97947 14.0646 6.76861L20.2142 12.9182C21.0033 13.7073 21.0033 14.9868 20.2142 15.7759L17.3565 18.6336C15.7782 20.2119 17.871 23.4961 21.1874 26.8125L21.8725 27.4804C24.9486 30.4001 27.8968 32.1128 29.3662 30.6434L32.224 27.7857C33.0131 26.9965 34.2925 26.9965 35.0817 27.7857Z" stroke="#28292A" stroke-width="2"/>
</svg>
