<svg width="48" height="48" viewBox="0 0 48 48" fill="none" xmlns="http://www.w3.org/2000/svg">
<path d="M36.4641 32H44.4641" stroke="#28292A" stroke-width="2"/>
<path fill-rule="evenodd" clip-rule="evenodd" d="M30.4641 38C33.7778 38 36.4641 35.3137 36.4641 32C36.4641 28.6863 33.7778 26 30.4641 26C27.1504 26 24.4641 28.6863 24.4641 32C24.4641 35.3137 27.1504 38 30.4641 38Z" stroke="#28292A" stroke-width="2"/>
<path fill-rule="evenodd" clip-rule="evenodd" d="M18.4641 22C21.7778 22 24.4641 19.3137 24.4641 16C24.4641 12.6863 21.7778 10 18.4641 10C15.1504 10 12.4641 12.6863 12.4641 16C12.4641 19.3137 15.1504 22 18.4641 22Z" stroke="#28292A" stroke-width="2"/>
<path d="M4.46411 16H12.4641" stroke="#28292A" stroke-width="2"/>
<path d="M4.46411 32H24.4641" stroke="#28292A" stroke-width="2"/>
<path d="M24.4641 16H44.4641" stroke="#28292A" stroke-width="2"/>
</svg>
