<svg width="48" height="48" viewBox="0 0 48 48" fill="none" xmlns="http://www.w3.org/2000/svg">
<path d="M12 15.6C12 12.2397 12 10.5595 12.654 9.27606C13.2292 8.14708 14.1471 7.2292 15.2761 6.65396C16.5595 6 18.2397 6 21.6 6H26.4C29.7603 6 31.4405 6 32.7239 6.65396C33.8529 7.2292 34.7708 8.14708 35.346 9.27606C36 10.5595 36 12.2397 36 15.6V32.4C36 35.7603 36 37.4405 35.346 38.7239C34.7708 39.8529 33.8529 40.7708 32.7239 41.346C31.4405 42 29.7603 42 26.4 42H21.6C18.2397 42 16.5595 42 15.2761 41.346C14.1471 40.7708 13.2292 39.8529 12.654 38.7239C12 37.4405 12 35.7603 12 32.4V15.6Z" stroke="#28292A" stroke-width="2"/>
<path d="M16 18H32" stroke="#28292A" stroke-width="2"/>
<path d="M16 30H24" stroke="#28292A" stroke-width="2"/>
<path d="M16 24H32" stroke="#28292A" stroke-width="2"/>
</svg>
