<svg width="48" height="48" viewBox="0 0 48 48" fill="none" xmlns="http://www.w3.org/2000/svg">
<path d="M20.6571 7.06678C22.5481 5.33191 25.4519 5.33191 27.3429 7.06678C28.3993 8.03596 29.8243 8.49897 31.2486 8.33581C33.7981 8.04374 36.1474 9.75058 36.6574 12.2656C36.9424 13.6706 37.8231 14.8828 39.0713 15.588C41.3056 16.8503 42.2029 19.612 41.1373 21.9465C40.542 23.2507 40.542 24.749 41.1373 26.0531C42.2029 28.3877 41.3056 31.1494 39.0713 32.4117C37.8231 33.1169 36.9424 34.329 36.6574 35.734C36.1474 38.2491 33.7981 39.9559 31.2486 39.6638C29.8243 39.5007 28.3993 39.9637 27.3429 40.9329C25.4519 42.6677 22.5481 42.6677 20.6571 40.9329C19.6008 39.9637 18.1758 39.5007 16.7515 39.6638C14.2019 39.9559 11.8527 38.2491 11.3426 35.734C11.0576 34.329 10.1769 33.1169 8.92874 32.4117C6.69444 31.1494 5.7971 28.3877 6.86273 26.0531C7.45804 24.749 7.45804 23.2507 6.86273 21.9465C5.7971 19.612 6.69444 16.8503 8.92874 15.588C10.1769 14.8828 11.0576 13.6706 11.3426 12.2656C11.8527 9.75058 14.2019 8.04374 16.7515 8.33581C18.1758 8.49897 19.6008 8.03596 20.6571 7.06678Z" stroke="#28292A" stroke-width="2"/>
<path d="M14.7802 24.3011L20.6262 30.1471L32.3182 18.4551" stroke="#28292A" stroke-width="2"/>
</svg>
