<svg width="48" height="48" viewBox="0 0 48 48" fill="none" xmlns="http://www.w3.org/2000/svg">
<path d="M6 32.8625V19.6253C6 17.19 6.17277 16.3089 6.53198 15.3717C6.8912 14.4345 7.43685 13.64 8.18264 12.9683C8.92842 12.2966 9.68877 11.819 11.9618 10.9448L24.8513 6" stroke="#28292A" stroke-width="2"/>
<path fill-rule="evenodd" clip-rule="evenodd" d="M12.4084 14.5789L27.0484 8.94813C28.8152 8.2686 30.7983 9.14999 31.4779 10.9168C31.6289 11.3094 31.7063 11.7265 31.7063 12.1472V26.2417L31.6977 26.8336C31.6718 27.6205 31.5873 27.9851 31.4403 28.3685C31.2607 28.8371 30.9879 29.2343 30.615 29.5702L30.4064 29.7455C30.0789 29.9994 29.6553 30.2243 28.7254 30.5819L14.0854 36.2127C12.3186 36.8922 10.3355 36.0109 9.65595 34.2441C9.50493 33.8514 9.42749 33.4343 9.42749 33.0137V18.9192C9.42749 17.7015 9.51387 17.261 9.69348 16.7924C9.87309 16.3238 10.1459 15.9265 10.5188 15.5907L10.7274 15.4153C11.0549 15.1614 11.4785 14.9365 12.4084 14.5789Z" stroke="#28292A" stroke-width="2"/>
<path d="M41.2762 33.0459L32.908 41.4141L28.7239 37.23" stroke="#28292A" stroke-width="2"/>
</svg>
