<svg width="48" height="48" viewBox="0 0 48 48" fill="none" xmlns="http://www.w3.org/2000/svg">
<path d="M12.8047 20.2461C12.3254 21.3423 11.1724 24.0954 10.3946 26.3383C9.26283 29.602 8.59331 33.0024 9.37719 34.2969C10.9269 33.4495 12.4295 30.6341 12.4295 30.6341C12.4295 33.5473 14.8955 40.2207 23.9605 40.2207L24 40.2206L24.0395 40.2207C33.1045 40.2207 35.5705 33.5473 35.5705 30.6341C35.5705 30.6341 37.0731 33.4495 38.6228 34.2969C39.4067 33.0024 38.7372 29.602 37.6054 26.3383C36.8276 24.0954 35.6746 21.3423 35.1953 20.2461" stroke="#28292A" stroke-width="2" stroke-linejoin="round"/>
<path d="M12.8052 20.2423C12.3614 13.7651 14.9111 5.49609 24 5.49609C33.089 5.49609 35.6387 13.7651 35.1949 20.2423C33.9652 22.1103 29.6393 24.4613 24 24.4613C18.3607 24.4613 14.0348 22.1103 12.8052 20.2423Z" stroke="#28292A" stroke-width="2"/>
<path d="M29.875 19.4103C29.875 17.9146 26.2916 17.3809 24 17.3809C21.7084 17.3809 18.125 18.0346 18.125 19.4103L24 20.7502L29.875 19.4103Z" stroke="#28292A" stroke-width="2" stroke-linejoin="round"/>
<path d="M24 40.1835C24 41.4652 26.7499 42.5042 30.142 42.5042C33.5342 42.5042 36.284 41.4652 36.284 40.1835C36.284 39.103 34.33 38.1951 31.6845 37.9365" stroke="#28292A" stroke-width="2" stroke-linejoin="round"/>
<path d="M24 40.1835C24 41.4652 21.2501 42.5042 17.858 42.5042C14.4658 42.5042 11.7159 41.4652 11.7159 40.1835C11.7159 39.103 13.6699 38.1951 16.3155 37.9365" stroke="#28292A" stroke-width="2" stroke-linejoin="round"/>
<path d="M36.6 24C36.6 24 32.5788 28.2989 24 28.2989C15.4213 28.2989 11.4 24 11.4 24" stroke="#28292A" stroke-width="2"/>
<path d="M22.321 28.3665V34.884H18.12V27.5391" stroke="#28292A" stroke-width="2"/>
<ellipse cx="20.6672" cy="12.1872" rx="1.65385" ry="2.76729" fill="#28292A"/>
<ellipse cx="27.3328" cy="12.1872" rx="1.65385" ry="2.76729" fill="#28292A"/>
</svg>
