<svg width="48" height="48" viewBox="0 0 48 48" fill="none" xmlns="http://www.w3.org/2000/svg">
<path d="M6 30.0854C6 33.4465 8.72473 36.1712 12.0858 36.1712C15.447 36.1712 18.1717 33.4465 18.1717 30.0854C18.1717 26.7242 15.447 23.9995 12.0858 23.9995C8.72473 23.9995 6 26.7242 6 30.0854ZM6 30.0854C6 20.002 14.1742 11.8281 24.2575 11.8281M25.2666 30.0855C25.2666 33.4466 27.9914 36.1713 31.3525 36.1713C34.7136 36.1713 37.4383 33.4466 37.4383 30.0855C37.4383 26.7244 34.7136 23.9996 31.3525 23.9996C27.9914 23.9996 25.2666 26.7244 25.2666 30.0855ZM25.2666 30.0855C25.2666 20.0021 33.4408 11.8281 43.5242 11.8281" stroke="#28292A" stroke-width="2"/>
</svg>
