<svg width="48" height="48" viewBox="0 0 48 48" fill="none" xmlns="http://www.w3.org/2000/svg">
<path d="M6.00003 21.6C6.00003 18.2397 6.00003 16.5595 6.65399 15.2761C7.22923 14.1471 8.14712 13.2292 9.27609 12.654C10.5596 12 12.2397 12 15.6 12H32.4C35.7603 12 37.4405 12 38.724 12.654C39.8529 13.2292 40.7708 14.1471 41.3461 15.2761C42 16.5595 42 18.2397 42 21.6V26.4C42 29.7603 42 31.4405 41.3461 32.7239C40.7708 33.8529 39.8529 34.7708 38.724 35.346C37.4405 36 35.7603 36 32.4 36H15.6C12.2397 36 10.5596 36 9.27609 35.346C8.14712 34.7708 7.22923 33.8529 6.65399 32.7239C6.00003 31.4405 6.00003 29.7603 6.00003 26.4V21.6Z" stroke="#28292A" stroke-width="2"/>
<path d="M9.99997 18.4277V29.5728H12.2477V24.8588H13.4496C13.9179 24.8588 14.2509 24.9837 14.4486 25.2334C14.6464 25.4832 14.7556 25.8266 14.7764 26.2636L14.8389 28.4021C14.8493 28.6206 14.8701 28.834 14.9013 29.0421C14.9325 29.2398 15.0054 29.4167 15.1198 29.5728H17.5549V29.4791C17.3468 29.3647 17.2115 29.1514 17.149 28.8392C17.1074 28.527 17.0762 28.0743 17.0554 27.4812C17.045 27.1794 17.0346 26.9088 17.0242 26.6695C17.0138 26.4197 16.9982 26.1908 16.9773 25.9827C16.9149 25.3583 16.7536 24.9056 16.4935 24.6246C16.2333 24.3437 15.8223 24.1616 15.2603 24.0783V24.0471C15.8951 23.9118 16.3634 23.61 16.6652 23.1418C16.9669 22.6631 17.1178 22.0491 17.1178 21.2999C17.1178 20.3321 16.8577 19.614 16.3374 19.1458C15.8171 18.6671 15.0886 18.4277 14.1521 18.4277H9.99997ZM12.2477 23.2978V20.0823H13.3092C14.3498 20.0823 14.8701 20.5974 14.8701 21.6277C14.8701 22.2312 14.7244 22.6631 14.433 22.9232C14.1416 23.173 13.7254 23.2978 13.1843 23.2978H12.2477Z" fill="#28292A"/>
<path d="M23.3251 25.3739L22.2481 20.3633H22.2168L21.1398 25.3739H23.3251ZM23.6217 18.4277L26.5718 29.5728H24.2304L23.7153 27.2158H20.7496L20.2345 29.5728H17.8931L20.8432 18.4277H23.6217Z" fill="#28292A"/>
<path d="M26.3866 18.4277L28.4158 29.5728H30.9289L32.1777 21.4872H32.2089L33.4576 29.5728H35.9707L38 18.4277H35.8459L34.6127 26.6695H34.5815L33.2703 18.4277H31.1162L29.8051 26.6695H29.7738L28.5407 18.4277H26.3866Z" fill="#28292A"/>
</svg>
