<svg width="48" height="48" viewBox="0 0 48 48" fill="none" xmlns="http://www.w3.org/2000/svg">
<path d="M6 30L5.29289 29.2929L4.58579 30L5.29289 30.7071L6 30ZM41.346 26.7239L42.237 27.1779L41.346 26.7239ZM38.7239 29.346L38.27 28.455L38.7239 29.346ZM38.7239 10.654L38.27 11.545V11.545L38.7239 10.654ZM41.346 13.2761L42.237 12.8221V12.8221L41.346 13.2761ZM28 11H32.4V9H28V11ZM41 19.6V20.4H43V19.6H41ZM32.4 29H6V31H32.4V29ZM41 20.4C41 22.0967 40.9992 23.309 40.9216 24.2594C40.8449 25.198 40.6982 25.7927 40.455 26.27L42.237 27.1779C42.6478 26.3717 42.8281 25.4846 42.9149 24.4222C43.0008 23.3715 43 22.0637 43 20.4H41ZM32.4 31C34.0637 31 35.3715 31.0008 36.4222 30.9149C37.4846 30.8281 38.3717 30.6478 39.1779 30.237L38.27 28.455C37.7927 28.6982 37.198 28.8449 36.2594 28.9216C35.309 28.9992 34.0967 29 32.4 29V31ZM40.455 26.27C39.9757 27.2108 39.2108 27.9757 38.27 28.455L39.1779 30.237C40.4951 29.5659 41.5659 28.4951 42.237 27.1779L40.455 26.27ZM32.4 11C34.0967 11 35.309 11.0008 36.2594 11.0784C37.198 11.1551 37.7927 11.3018 38.27 11.545L39.1779 9.76295C38.3717 9.35217 37.4846 9.17186 36.4222 9.08507C35.3715 8.99922 34.0637 9 32.4 9V11ZM43 19.6C43 17.9363 43.0008 16.6285 42.9149 15.5778C42.8281 14.5154 42.6478 13.6283 42.237 12.8221L40.455 13.73C40.6982 14.2073 40.8449 14.802 40.9216 15.7406C40.9992 16.691 41 17.9033 41 19.6H43ZM38.27 11.545C39.2108 12.0243 39.9757 12.7892 40.455 13.73L42.237 12.8221C41.5659 11.5049 40.4951 10.4341 39.1779 9.76295L38.27 11.545ZM13.2929 21.2929L5.29289 29.2929L6.70711 30.7071L14.7071 22.7071L13.2929 21.2929ZM5.29289 30.7071L13.2929 38.7071L14.7071 37.2929L6.70711 29.2929L5.29289 30.7071Z" fill="#28292A"/>
</svg>
