<svg width="48" height="48" viewBox="0 0 48 48" fill="none" xmlns="http://www.w3.org/2000/svg">
<path d="M28 24H32.8C33.9201 24 34.4802 24 34.908 24.218C35.2843 24.4097 35.5903 24.7157 35.782 25.092C36 25.5198 36 26.0799 36 27.2V38.8C36 39.9201 36 40.4802 35.782 40.908C35.5903 41.2843 35.2843 41.5903 34.908 41.782C34.4802 42 33.9201 42 32.8 42H15.2C14.0799 42 13.5198 42 13.092 41.782C12.7157 41.5903 12.4097 41.2843 12.218 40.908C12 40.4802 12 39.9201 12 38.8V27.2C12 26.0799 12 25.5198 12.218 25.092C12.4097 24.7157 12.7157 24.4097 13.092 24.218C13.5198 24 14.0799 24 15.2 24H20M24 34V6M24 6L16 14M24 6L32 14" stroke="#28292A" stroke-width="2"/>
</svg>
