<svg width="48" height="48" viewBox="0 0 48 48" fill="none" xmlns="http://www.w3.org/2000/svg">
<path fill-rule="evenodd" clip-rule="evenodd" d="M34 16C36.2091 16 38 14.2091 38 12C38 9.79086 36.2091 8 34 8C31.7909 8 30 9.79086 30 12C30 14.2091 31.7909 16 34 16Z" stroke="#28292A" stroke-width="2"/>
<path fill-rule="evenodd" clip-rule="evenodd" d="M11.5554 28C13.7646 28 15.5554 26.2091 15.5554 24C15.5554 21.7909 13.7646 20 11.5554 20C9.34628 20 7.55542 21.7909 7.55542 24C7.55542 26.2091 9.34628 28 11.5554 28Z" stroke="#28292A" stroke-width="2"/>
<path fill-rule="evenodd" clip-rule="evenodd" d="M34 40C36.2091 40 38 38.2091 38 36C38 33.7909 36.2091 32 34 32C31.7909 32 30 33.7909 30 36C30 38.2091 31.7909 40 34 40Z" stroke="#28292A" stroke-width="2"/>
<path d="M30.4259 13.9111L14.989 22.1648" stroke="#28292A" stroke-width="2"/>
<path d="M14.9774 25.8301L30.576 34.1696" stroke="#28292A" stroke-width="2"/>
</svg>
