<svg width="48" height="48" viewBox="0 0 48 48" fill="none" xmlns="http://www.w3.org/2000/svg">
<path fill-rule="evenodd" clip-rule="evenodd" d="M19.2097 6.00326L28.3083 6C30.9829 6 31.9528 6.27848 32.9305 6.8014C33.9083 7.32432 34.6757 8.09168 35.1986 9.06946L35.3832 9.4391C35.7868 10.3163 36 11.3514 36 13.6917V34.3083C36 36.9829 35.7215 37.9528 35.1986 38.9305C34.6757 39.9083 33.9083 40.6757 32.9305 41.1986L32.5609 41.3832C31.6837 41.7868 30.6486 42 28.3083 42H19.6917C17.0171 42 16.0472 41.7215 15.0695 41.1986C14.0917 40.6757 13.3243 39.9083 12.8014 38.9305L12.6168 38.5609C12.242 37.7463 12.0314 36.7956 12.0033 34.7903L12 13.6917C12 11.0171 12.2785 10.0472 12.8014 9.06946C13.3243 8.09168 14.0917 7.32432 15.0695 6.8014L15.4391 6.61683C16.2537 6.24204 17.2044 6.03143 19.2097 6.00326V6.00326Z" stroke="#28292A" stroke-width="2"/>
<path fill-rule="evenodd" clip-rule="evenodd" d="M18 6H30V8C30 9.10457 29.1046 10 28 10H20C18.8954 10 18 9.10457 18 8V6Z" fill="#28292A"/>
</svg>
