<svg width="48" height="48" viewBox="0 0 48 48" fill="none" xmlns="http://www.w3.org/2000/svg">
<path d="M39.6589 12.7742C41.1645 16.2108 42 20.0078 42 24C42 25.8238 41.8256 27.6068 41.4927 29.3333M34.1605 15.1798C35.3435 17.8799 36 20.8633 36 24C36 24.8883 35.9473 25.7643 35.845 26.625M28.6622 17.5853C29.5226 19.549 30 21.7188 30 24M16.4833 16.7836L22 12V19.5625M22 26.625V36L14.3117 29.3333H9.99998C7.79085 29.3333 5.99998 27.5425 5.99998 25.3333V22.6667C5.99998 21.1715 6.82033 19.8679 8.03548 19.1815M5.11206 13.3964L42.8879 34.6036" stroke="#28292A" stroke-width="2"/>
</svg>
