<svg width="48" height="48" viewBox="0 0 48 48" fill="none" xmlns="http://www.w3.org/2000/svg">
<path d="M39.6589 12.7742C41.1645 16.2108 42 20.0078 42 24C42 27.9922 41.1645 31.7892 39.6589 35.2258M34.1605 15.1798C35.3436 17.8799 36 20.8633 36 24C36 27.1367 35.3436 30.1201 34.1605 32.8202M28.6622 17.5853C29.5226 19.549 30 21.7188 30 24C30 26.2812 29.5226 28.451 28.6622 30.4147M14.3117 18.6667L22 12V36L14.3117 29.3333H10C7.79086 29.3333 6 27.5425 6 25.3333V22.6667C6 20.4575 7.79086 18.6667 10 18.6667H14.3117Z" stroke="#28292A" stroke-width="2"/>
</svg>
