<svg width="48" height="48" viewBox="0 0 48 48" fill="none" xmlns="http://www.w3.org/2000/svg">
<path fill-rule="evenodd" clip-rule="evenodd" d="M24 33.9062L13.9514 41.0696C13.1467 41.6432 12.7444 41.93 12.5115 41.7608C12.2786 41.5916 12.4271 41.1203 12.7239 40.1778L16.4316 28.4074L6.51355 21.0642C5.71937 20.4762 5.32228 20.1822 5.41124 19.9084C5.50019 19.6346 5.99426 19.6301 6.98238 19.6212L19.3225 19.5101L23.2414 7.80835C23.5552 6.87134 23.7121 6.40283 24 6.40283C24.2879 6.40283 24.4448 6.87134 24.7586 7.80835L28.6776 19.5101L41.0176 19.6212C42.0058 19.6301 42.4998 19.6346 42.5888 19.9084C42.6777 20.1822 42.2807 20.4762 41.4865 21.0642L31.5685 28.4074L35.2761 40.1778C35.573 41.1203 35.7214 41.5916 35.4885 41.7608C35.2556 41.93 34.8533 41.6432 34.0487 41.0696L24 33.9062Z" stroke="#28292A" stroke-width="2"/>
</svg>
