<svg width="48" height="48" viewBox="0 0 48 48" fill="none" xmlns="http://www.w3.org/2000/svg">
<path fill-rule="evenodd" clip-rule="evenodd" d="M8.9079 28.2425L26.7069 10.4435C27.457 9.6934 28.4745 9.27197 29.5353 9.27197L39.1922 9.27197V18.9288C39.1922 19.9897 38.7707 21.0071 38.0206 21.7573L20.2216 39.5562C18.6595 41.1183 16.1269 41.1183 14.5648 39.5562L8.9079 33.8994C7.3458 32.3373 7.3458 29.8046 8.9079 28.2425Z" stroke="#28292A" stroke-width="2"/>
<path fill-rule="evenodd" clip-rule="evenodd" d="M33.5351 17.7575C34.3162 16.9764 34.3162 15.7101 33.5351 14.929C32.7541 14.148 31.4877 14.148 30.7067 14.929C29.9256 15.7101 29.9256 16.9764 30.7067 17.7575C31.4877 18.5385 32.7541 18.5385 33.5351 17.7575Z" fill="#28292A"/>
</svg>
