<svg width="48" height="48" viewBox="0 0 48 48" fill="none" xmlns="http://www.w3.org/2000/svg">
<path fill-rule="evenodd" clip-rule="evenodd" d="M31.3575 22.2327C34.4593 22.2327 36.9738 19.7181 36.9738 16.6163C36.9738 13.5145 34.4593 11 31.3575 11C28.2557 11 25.7411 13.5145 25.7411 16.6163C25.7411 19.7181 28.2557 22.2327 31.3575 22.2327Z" stroke="#28292A" stroke-width="2"/>
<path fill-rule="evenodd" clip-rule="evenodd" d="M14.8426 25.745L18.0227 25.7427C20.4283 25.7427 21.4587 25.9636 22.4855 26.4067C23.5123 26.8497 24.3644 27.515 25.0433 28.4037C25.7222 29.2924 26.1864 30.2384 26.7698 32.5722L27.8706 36.9753H5.40527L6.50605 32.5722C7.0895 30.2384 7.5537 29.2924 8.2326 28.4037C8.91149 27.515 9.76354 26.8497 10.7904 26.4067C11.7568 25.9896 12.7263 25.7694 14.8426 25.745V25.745Z" stroke="#28292A" stroke-width="2"/>
<path fill-rule="evenodd" clip-rule="evenodd" d="M16.6379 22.2327C19.7397 22.2327 22.2542 19.7181 22.2542 16.6163C22.2542 13.5145 19.7397 11 16.6379 11C13.5361 11 11.0215 13.5145 11.0215 16.6163C11.0215 19.7181 13.5361 22.2327 16.6379 22.2327Z" stroke="#28292A" stroke-width="2"/>
<path d="M26.6245 26.0288C27.3364 25.855 28.218 25.7605 29.5622 25.745L32.7423 25.7427C35.1479 25.7427 36.1782 25.9636 37.2051 26.4067C38.2319 26.8497 39.0839 27.515 39.7628 28.4037C40.4417 29.2924 40.9059 30.2384 41.4894 32.5722L42.5901 36.9753H30.5007" stroke="#28292A" stroke-width="2"/>
</svg>
