<svg width="48" height="48" viewBox="0 0 48 48" fill="none" xmlns="http://www.w3.org/2000/svg">
<path d="M15.9507 12.2021L16.8935 11.8688L15.0079 11.8688L15.9507 12.2021ZM21.7401 28.5786L22.6829 28.2453L21.7401 28.5786ZM31.7694 22.775L31.1819 21.9658L30.7694 22.2652V22.775H31.7694ZM41.2091 35.5393H40.2091V36.5393H41.2091V35.5393ZM4 36.5433H7.69911V34.5433H4V36.5433ZM7.69911 36.5433H11.9671V34.5433H7.69911V36.5433ZM19.9343 36.5433H24.2023V34.5433H19.9343V36.5433ZM24.2023 36.5433H27.9014V34.5433H24.2023V36.5433ZM8.64193 35.8766L11.1041 28.9119L9.21848 28.2453L6.75629 35.21L8.64193 35.8766ZM11.1041 28.9119L16.8935 12.5355L15.0079 11.8688L9.21848 28.2453L11.1041 28.9119ZM15.0079 12.5355L20.7973 28.9119L22.6829 28.2453L16.8935 11.8688L15.0079 12.5355ZM20.7973 28.9119L23.2594 35.8766L25.1451 35.21L22.6829 28.2453L20.7973 28.9119ZM10.1525 29.5786H10.1613V27.5786H10.1525V29.5786ZM10.1613 29.5786H21.7401V27.5786H10.1613V29.5786ZM32.7694 25.0733V22.775H30.7694V25.0733H32.7694ZM32.3568 23.5843C33.8436 22.505 35.9178 22.1147 37.589 22.4436C38.4154 22.6062 39.0777 22.9317 39.5202 23.3639C39.9442 23.7781 40.2091 24.3284 40.2091 25.0733H42.2091C42.2091 23.7872 41.7251 22.7219 40.9178 21.9332C40.1289 21.1627 39.0777 20.6982 37.9752 20.4812C35.7883 20.0509 33.1427 20.5424 31.1819 21.9658L32.3568 23.5843ZM40.2091 25.0733V28.4843H42.2091V25.0733H40.2091ZM40.2091 28.4843V31.9992H42.2091V28.4843H40.2091ZM40.2091 31.9992V35.5393H42.2091V31.9992H40.2091ZM41.2091 36.5393H44V34.5393H41.2091V36.5393ZM41.4014 27.5029L41.3977 27.5022L41.0206 29.4663L41.0243 29.4671L41.4014 27.5029ZM41.3978 27.5022C39.6792 27.172 37.0621 26.9951 34.8222 27.5371C33.6979 27.8091 32.5879 28.2816 31.7472 29.0848C30.8782 29.9152 30.3589 31.0422 30.3589 32.4628H32.3589C32.3589 31.5783 32.662 30.9769 33.1289 30.5309C33.624 30.0578 34.3632 29.7059 35.2926 29.481C37.16 29.0291 39.468 29.168 41.0204 29.4663L41.3978 27.5022ZM30.3589 32.4628C30.3589 33.9788 30.9154 35.1663 31.9397 35.9008C32.9214 36.6047 34.1779 36.7802 35.3908 36.6481C37.8012 36.3854 40.5392 34.8597 42.047 32.5451L40.3712 31.4534C39.2083 33.2385 37.0212 34.4586 35.1742 34.6598C34.2584 34.7596 33.553 34.5966 33.1051 34.2754C32.6998 33.9848 32.3589 33.4608 32.3589 32.4628H30.3589ZM42.0473 32.5446L42.0511 32.5388L40.3747 31.4481L40.3709 31.4539L42.0473 32.5446Z" fill="#28292A"/>
</svg>
