<svg width="48" height="48" viewBox="0 0 48 48" fill="none" xmlns="http://www.w3.org/2000/svg">
<path d="M8 22H16V40H8V22Z" stroke="#28292A" stroke-width="2"/>
<path d="M29.4375 11.062C29.4375 4.64649 22 4.17912 22 6.13602V11.598C22 11.598 17.6302 20.6839 16 22.1075V34.4066C19.4977 38.4635 31.5531 38.7373 33.9365 37.4211C36.3199 36.1049 36.4151 34.4066 36.4151 34.4066C36.4151 34.4066 38.4875 33.448 39.0985 31.6694C39.7094 29.8907 38.7148 28.5849 38.7148 28.5849C38.7148 28.5849 40.2616 27.2565 40.4394 25.5846C40.6173 23.9127 39.2593 22.7492 39.2593 22.7492C39.2593 22.7492 40.0322 20.4026 38.4187 18.8165C36.8051 17.2304 27.8125 17.9995 27.8125 17.9995C27.8125 17.9995 29.4375 15.0156 29.4375 11.062Z" stroke="#28292A" stroke-width="2" stroke-linejoin="round"/>
</svg>
