<svg width="48" height="48" viewBox="0 0 48 48" fill="none" xmlns="http://www.w3.org/2000/svg">
<path fill-rule="evenodd" clip-rule="evenodd" d="M23.9936 28.6192C21.6884 28.6192 20.983 31.996 20.6459 34.8048L20.5666 35.4374C20.1916 38.3004 19.4028 42.6 17.9257 42.6C16.3349 42.6 14.8247 39.8951 14.1899 35.8297C13.7668 33.1194 13.4102 29.894 13.1203 26.1533C12.1741 24.1624 11.3834 22.1004 10.7481 19.9672L10.4738 19.0156C9.52866 15.598 8.4491 9.89396 12.4257 7.04511C16.5083 4.1203 20.217 6.65514 23.4263 7.00611L23.7682 7.03501L24 7.04034L24.2318 7.03501C27.5186 6.84316 31.3459 4.01584 35.5743 7.04511C39.9486 10.1788 38.2049 16.7673 37.2519 19.9672C36.6166 22.1004 35.8259 24.1624 34.8798 26.1533C34.5898 29.894 34.2333 33.1194 33.8101 35.8297C33.1753 39.8951 31.6651 42.6 30.0743 42.6C28.5404 42.6 27.7488 37.9633 27.392 35.1137L27.2655 34.1218C26.9101 31.5923 26.1931 28.8673 24.2755 28.6352L23.9936 28.6192Z" stroke="#28292A" stroke-width="2"/>
</svg>
