<svg width="48" height="48" viewBox="0 0 48 48" fill="none" xmlns="http://www.w3.org/2000/svg">
<path d="M24.3469 16.5563L25.8241 15.5955C26.9352 14.8727 28.4218 15.1876 29.1445 16.2987C29.2305 16.4309 29.3033 16.5713 29.3617 16.7177L30.6589 19.9682V19.9682" stroke="#28292A" stroke-width="2" stroke-linecap="round" stroke-linejoin="round"/>
<path d="M21.0322 21.6261L16.3687 8.9444C15.8991 7.66727 14.5074 6.98606 13.2107 7.39859C11.9721 7.79263 11.2874 9.11615 11.6815 10.3548C11.6894 10.3796 11.6977 10.4042 11.7064 10.4288L18.2656 28.9018V28.9018L12.5757 23.7509C11.7047 22.9624 10.3759 22.9688 9.51244 23.7657C8.65467 24.5573 8.56197 25.8801 9.30096 26.7837C13.0908 31.4173 15.815 34.6214 17.4736 36.3959C20.7975 39.9519 28.5423 41.0438 32.7524 38.3473C36.9626 35.6508 39.2316 30.936 37.9468 26.6584C36.795 22.8238 34.2711 13.2273 29.4779 16.7454" stroke="#28292A" stroke-width="2" stroke-linecap="round" stroke-linejoin="round"/>
<path d="M19.1404 16.0005L20.5531 15.048C21.6521 14.307 23.1438 14.5973 23.8847 15.6963C24.0061 15.8763 24.1024 16.0718 24.1712 16.2777L25.6818 20.8012V20.8012" stroke="#28292A" stroke-width="2" stroke-linecap="round" stroke-linejoin="round"/>
</svg>
