<svg width="48" height="48" viewBox="0 0 48 48" fill="none" xmlns="http://www.w3.org/2000/svg">
<path d="M8 10H40" stroke="#28292A" stroke-width="2"/>
<path d="M24 14V38" stroke="#28292A" stroke-width="2"/>
<path d="M18 14L19 38" stroke="#28292A" stroke-width="2"/>
<path d="M30 14L29 38" stroke="#28292A" stroke-width="2"/>
<path d="M18 10V8.56389C18 7.67237 18.0928 7.34908 18.2671 7.02315C18.4414 6.69723 18.6972 6.44144 19.0232 6.26713C19.3491 6.09283 19.6724 6 20.5639 6H27.4361C28.3276 6 28.6509 6.09283 28.9768 6.26713C29.3028 6.44144 29.5586 6.69723 29.7329 7.02315C29.9072 7.34908 30 7.67237 30 8.56389V10" stroke="#28292A" stroke-width="2"/>
<path d="M36 10L34.4547 34.7246C34.2938 37.2992 33.9821 38.2185 33.4392 39.1406C32.8963 40.0628 32.1354 40.7776 31.1812 41.2619C30.227 41.7462 29.29 42 26.7104 42H21.2896C18.71 42 17.773 41.7462 16.8188 41.2619C15.8646 40.7776 15.1037 40.0628 14.5608 39.1406C14.0179 38.2185 13.7062 37.2992 13.5453 34.7246L12 10V10" stroke="#28292A" stroke-width="2"/>
</svg>
