<svg width="48" height="48" viewBox="0 0 48 48" fill="none" xmlns="http://www.w3.org/2000/svg">
<path fill-rule="evenodd" clip-rule="evenodd" d="M36 18.0002L41.1056 15.4474C42.0935 14.9534 43.2949 15.3539 43.7889 16.3419C43.9277 16.6196 44 16.9258 44 17.2363V30.7641C44 31.8687 43.1046 32.7641 42 32.7641C41.6895 32.7641 41.3833 32.6918 41.1056 32.553L36 30.0002V18.0002Z" stroke="#28292A" stroke-width="2"/>
<path fill-rule="evenodd" clip-rule="evenodd" d="M13.2097 12.0033L24.3083 12C26.9829 12 27.9528 12.2785 28.9305 12.8014C29.9083 13.3243 30.6757 14.0917 31.1986 15.0695L31.3832 15.4391C31.7868 16.3163 32 17.3514 32 19.6917V28.3083C32 30.9829 31.7215 31.9528 31.1986 32.9305C30.6757 33.9083 29.9083 34.6757 28.9305 35.1986L28.5609 35.3832C27.6837 35.7868 26.6486 36 24.3083 36H13.6917C11.0171 36 10.0472 35.7215 9.06946 35.1986C8.09168 34.6757 7.32432 33.9083 6.8014 32.9305L6.61683 32.5609C6.24204 31.7463 6.03143 30.7956 6.00326 28.7903L6 19.6917C6 17.0171 6.27848 16.0472 6.8014 15.0695C7.32432 14.0917 8.09168 13.3243 9.06946 12.8014L9.4391 12.6168C10.2537 12.242 11.2044 12.0314 13.2097 12.0033Z" stroke="#28292A" stroke-width="2"/>
</svg>
