<svg width="48" height="48" viewBox="0 0 48 48" fill="none" xmlns="http://www.w3.org/2000/svg">
<path fill-rule="evenodd" clip-rule="evenodd" d="M13.2098 14.0033L34.3084 14C36.9829 14 37.9528 14.2785 38.9306 14.8014C39.9083 15.3243 40.6757 16.0917 41.1986 17.0695L41.3832 17.4391C41.7868 18.3163 42 19.3514 42 21.6917V34.3083C42 36.9829 41.7216 37.9528 41.1986 38.9305C40.6757 39.9083 39.9083 40.6757 38.9306 41.1986L38.5609 41.3832C37.6837 41.7868 36.6486 42 34.3084 42H13.6917C11.0171 42 10.0473 41.7215 9.06949 41.1986C8.09172 40.6757 7.32435 39.9083 6.80143 38.9305L6.61686 38.5609C6.24207 37.7463 6.03146 36.7956 6.00329 34.7903L6.00003 21.6917C6.00003 19.0171 6.27851 18.0472 6.80143 17.0695C7.32435 16.0917 8.09172 15.3243 9.06949 14.8014L9.43913 14.6168C10.2537 14.242 11.2044 14.0314 13.2098 14.0033Z" stroke="#28292A" stroke-width="2"/>
<path d="M6.00003 20.1967V20.1967V19.35C6.00003 17.6186 6.15831 16.7615 6.485 15.9296C6.81168 15.0976 7.30678 14.395 7.98041 13.8076C8.65405 13.2201 9.40794 12.7828 11.0384 12.2004L28.6547 5.90893C30.7351 5.16591 33.024 6.25011 33.767 8.33055C33.9212 8.76233 34 9.21741 34 9.67589V13.9999V13.9999" stroke="#28292A" stroke-width="2"/>
<path fill-rule="evenodd" clip-rule="evenodd" d="M34.0003 29.9996C35.1047 29.9996 36.0001 29.1042 36.0001 27.9998C36.0001 26.8953 35.1047 26 34.0003 26C32.8959 26 32.0005 26.8953 32.0005 27.9998C32.0005 29.1042 32.8959 29.9996 34.0003 29.9996Z" fill="#28292A"/>
</svg>
