<svg width="48" height="48" viewBox="0 0 48 48" fill="none" xmlns="http://www.w3.org/2000/svg">
<path d="M18.0351 29.8475C16.9037 29.811 15.8093 29.6555 14.77 29.3956C13.2139 30.9019 11.3552 31.8368 9.19482 32.2038C9.87053 30.6849 10.368 29.1745 10.6871 27.6725C7.55915 25.7148 5.54138 22.6174 5.54138 19.1315C5.54138 13.2087 11.3666 8.40723 18.5525 8.40723C24.5065 8.40723 29.5264 11.7036 31.0725 16.203L31.2072 16.6283" stroke="#28292A" stroke-width="2"/>
<path fill-rule="evenodd" clip-rule="evenodd" d="M31.6642 19.3418C37.5919 19.3418 42.3972 23.2224 42.3972 28.0095C42.3972 30.6259 40.9616 32.9717 38.6918 34.5609C39.0369 36.1736 39.4729 37.8517 39.9949 39.5927C38.2116 39.2589 36.4282 38.1743 34.6449 36.3388C33.7002 36.5588 32.6993 36.6771 31.6642 36.6771C25.7365 36.6771 20.9312 32.7965 20.9312 28.0095C20.9312 23.2224 25.7365 19.3418 31.6642 19.3418Z" stroke="#28292A" stroke-width="2"/>
<path fill-rule="evenodd" clip-rule="evenodd" d="M13.8414 17.2756C14.8584 17.2756 15.6828 16.4512 15.6828 15.4342C15.6828 14.4172 14.8584 13.5928 13.8414 13.5928C12.8244 13.5928 12 14.4172 12 15.4342C12 16.4512 12.8244 17.2756 13.8414 17.2756Z" fill="#28292A"/>
<path fill-rule="evenodd" clip-rule="evenodd" d="M27.6714 26.3347C28.5122 26.3347 29.1938 25.6532 29.1938 24.8124C29.1938 23.9716 28.5122 23.29 27.6714 23.29C26.8306 23.29 26.149 23.9716 26.149 24.8124C26.149 25.6532 26.8306 26.3347 27.6714 26.3347Z" fill="#28292A"/>
<path fill-rule="evenodd" clip-rule="evenodd" d="M35.5274 26.3347C36.3681 26.3347 37.0497 25.6532 37.0497 24.8124C37.0497 23.9716 36.3681 23.29 35.5274 23.29C34.6866 23.29 34.005 23.9716 34.005 24.8124C34.005 25.6532 34.6866 26.3347 35.5274 26.3347Z" fill="#28292A"/>
<path fill-rule="evenodd" clip-rule="evenodd" d="M23.1155 17.2756C24.1324 17.2756 24.9569 16.4512 24.9569 15.4342C24.9569 14.4172 24.1324 13.5928 23.1155 13.5928C22.0985 13.5928 21.274 14.4172 21.274 15.4342C21.274 16.4512 22.0985 17.2756 23.1155 17.2756Z" fill="#28292A"/>
</svg>
