<svg width="48" height="48" viewBox="0 0 48 48" fill="none" xmlns="http://www.w3.org/2000/svg">
<path d="M28.375 40.7503L28.7672 41.6702L28.375 40.7503ZM38.7391 30.5515L37.7464 30.4307L38.7391 30.5515ZM33.347 24.1268L32.4956 23.6022C32.3055 23.9108 32.2972 24.298 32.4739 24.6144C32.6506 24.9308 32.9846 25.1268 33.347 25.1268V24.1268ZM32.9645 17.8934L33.5739 17.1005L32.9645 17.8934ZM23.7865 19.1936L22.8499 18.843C22.6981 19.2487 22.8247 19.706 23.1635 19.9758C23.5023 20.2457 23.9763 20.2667 24.3377 20.028L23.7865 19.1936ZM22.5627 13.2661L23.0153 12.3744L22.5627 13.2661ZM9.06332 20.8763L9.84265 21.5029L9.06332 20.8763ZM8.49153 40.0707C11.8603 42.4186 15.8847 43.2571 19.5445 43.3012C23.2002 43.3452 26.5898 42.5984 28.7672 41.6702L27.9828 39.8304C26.0833 40.6402 22.9721 41.3423 19.5686 41.3013C16.1693 41.2604 12.5763 40.4798 9.63512 38.4299L8.49153 40.0707ZM28.7672 41.6702C31.5555 40.4814 34.1306 38.8816 36.0876 37.0272C38.0334 35.1833 39.4475 33.0098 39.7318 30.6722L37.7464 30.4307C37.5395 32.132 36.4741 33.9056 34.7119 35.5754C32.9609 37.2346 30.5995 38.7148 27.9828 39.8304L28.7672 41.6702ZM33.347 24.1268C34.1983 24.6514 34.1985 24.6511 34.1987 24.6507C34.1988 24.6506 34.1991 24.6502 34.1992 24.6499C34.1996 24.6494 34.1999 24.6488 34.2003 24.6481C34.2012 24.6468 34.2021 24.6452 34.2033 24.6433C34.2055 24.6396 34.2083 24.635 34.2117 24.6293C34.2185 24.618 34.2275 24.6028 34.2385 24.5839C34.2605 24.5462 34.2905 24.4935 34.3265 24.4273C34.3984 24.2951 34.495 24.108 34.6001 23.8776C34.8084 23.4208 35.0592 22.7742 35.2102 22.0367C35.5103 20.5705 35.4392 18.5342 33.5739 17.1005L32.3551 18.6863C33.3558 19.4554 33.4759 20.5358 33.2508 21.6356C33.1391 22.1811 32.9482 22.6798 32.7804 23.0476C32.6974 23.2295 32.6224 23.3745 32.5697 23.4714C32.5434 23.5197 32.5228 23.5557 32.5098 23.5781C32.5033 23.5893 32.4987 23.597 32.4963 23.6011C32.4951 23.6031 32.4944 23.6042 32.4942 23.6044C32.4942 23.6046 32.4943 23.6044 32.4945 23.6041C32.4946 23.6039 32.4948 23.6036 32.4949 23.6033C32.495 23.6032 32.4952 23.6029 32.4952 23.6028C32.4954 23.6025 32.4956 23.6022 33.347 24.1268ZM33.5739 17.1005C31.4755 15.4877 28.7267 15.9754 26.8008 16.6372C25.7961 16.9824 24.9104 17.4103 24.279 17.7491C23.962 17.9192 23.7057 18.0687 23.5267 18.177C23.4371 18.2311 23.3667 18.2751 23.3175 18.3063C23.2929 18.3219 23.2735 18.3343 23.2598 18.3433C23.2529 18.3477 23.2473 18.3513 23.2433 18.354C23.2412 18.3553 23.2395 18.3565 23.2382 18.3573C23.2375 18.3578 23.2369 18.3582 23.2364 18.3585C23.2362 18.3586 23.2359 18.3588 23.2358 18.3589C23.2355 18.3591 23.2352 18.3593 23.7865 19.1936C24.3377 20.028 24.3375 20.0281 24.3373 20.0282C24.3373 20.0283 24.3371 20.0284 24.337 20.0284C24.3369 20.0285 24.3369 20.0285 24.3369 20.0285C24.337 20.0284 24.3374 20.0282 24.3382 20.0276C24.3397 20.0266 24.3427 20.0247 24.3469 20.022C24.3555 20.0164 24.3694 20.0075 24.3884 19.9954C24.4264 19.9713 24.4848 19.9348 24.5616 19.8884C24.7153 19.7954 24.9417 19.6633 25.2247 19.5114C25.7935 19.2062 26.5775 18.8287 27.4507 18.5286C29.2806 17.8999 31.1208 17.7375 32.3551 18.6863L33.5739 17.1005ZM23.7865 19.1936C24.723 19.5442 24.7231 19.5439 24.7233 19.5435C24.7233 19.5434 24.7234 19.543 24.7235 19.5428C24.7238 19.5422 24.724 19.5416 24.7242 19.5409C24.7248 19.5395 24.7254 19.5379 24.7261 19.5359C24.7275 19.5321 24.7293 19.5271 24.7315 19.5211C24.7358 19.5091 24.7416 19.4929 24.7487 19.4726C24.7628 19.4321 24.7821 19.3754 24.8048 19.3043C24.8503 19.1625 24.9102 18.9622 24.9717 18.7186C25.0936 18.2356 25.2269 17.5616 25.2586 16.8233C25.3199 15.3936 24.9959 13.3795 23.0153 12.3744L22.1102 14.1578C23.0226 14.6209 23.3105 15.5706 23.2604 16.7376C23.2364 17.2977 23.1332 17.8303 23.0325 18.2292C22.9827 18.4266 22.9348 18.5862 22.9003 18.694C22.883 18.7477 22.8692 18.7883 22.8603 18.8138C22.8559 18.8265 22.8527 18.8355 22.8509 18.8404C22.85 18.8429 22.8494 18.8444 22.8493 18.8448C22.8492 18.845 22.8492 18.845 22.8493 18.8447C22.8494 18.8446 22.8495 18.8444 22.8496 18.8441C22.8496 18.8439 22.8497 18.8437 22.8497 18.8436C22.8498 18.8433 22.8499 18.843 23.7865 19.1936ZM23.0153 12.3744C21.963 11.8403 20.7481 11.7978 19.5346 12.0439C18.3188 12.2905 17.0308 12.8399 15.7493 13.5906C13.1856 15.0925 10.5091 17.4822 8.284 20.2496L9.84265 21.5029C11.9452 18.8879 14.4437 16.6734 16.7603 15.3162C17.9191 14.6374 18.9976 14.1935 19.9321 14.004C20.8687 13.8141 21.5877 13.8927 22.1102 14.1578L23.0153 12.3744ZM8.284 20.2496C5.93531 23.1707 4.25432 26.8542 4.01147 30.4459C3.76571 34.0805 5.00279 37.6391 8.49153 40.0707L9.63512 38.4299C6.81394 36.4636 5.80046 33.6342 6.00691 30.5808C6.21627 27.4845 7.69023 24.1798 9.84265 21.5029L8.284 20.2496ZM39.7318 30.6722C39.9467 28.9053 39.6921 27.4909 39.1138 26.3766C38.5364 25.2639 37.6783 24.5316 36.8216 24.0557C35.9722 23.5839 35.11 23.3553 34.4738 23.2425C34.1527 23.1856 33.8809 23.1568 33.6855 23.1422C33.5876 23.1348 33.5083 23.131 33.4509 23.129C33.4222 23.128 33.3989 23.1275 33.3815 23.1272C33.3727 23.127 33.3655 23.1269 33.3597 23.1269C33.3568 23.1269 33.3543 23.1268 33.3522 23.1268C33.3511 23.1268 33.3502 23.1268 33.3493 23.1268C33.3489 23.1268 33.3483 23.1268 33.3481 23.1268C33.3475 23.1268 33.347 23.1268 33.347 24.1268C33.347 25.1268 33.3465 25.1268 33.346 25.1268C33.3459 25.1268 33.3455 25.1268 33.3452 25.1268C33.3447 25.1268 33.3443 25.1268 33.344 25.1268C33.3434 25.1268 33.3431 25.1268 33.3432 25.1268C33.3433 25.1268 33.3449 25.1268 33.3478 25.1269C33.3537 25.127 33.365 25.1272 33.3813 25.1278C33.4139 25.1289 33.4665 25.1314 33.5359 25.1366C33.6751 25.147 33.8795 25.1684 34.1249 25.2119C34.6218 25.2999 35.2542 25.4729 35.8504 25.8041C36.4395 26.1313 36.9783 26.6036 37.3386 27.2979C37.6981 27.9904 37.9222 28.9853 37.7464 30.4307L39.7318 30.6722Z" fill="#28292A"/>
<ellipse cx="20.2763" cy="31.2892" rx="10.8122" ry="7.42232" transform="rotate(-5.18303 20.2763 31.2892)" stroke="#28292A" stroke-width="2"/>
<ellipse cx="19.6165" cy="32.5919" rx="3.82821" ry="3.12239" transform="rotate(-5.18303 19.6165 32.5919)" fill="#28292A"/>
<path d="M32.1078 12.903C32.5457 12.7804 33.0074 12.7148 33.4845 12.7148C36.2992 12.7148 38.5811 14.9967 38.5811 17.8114C38.5811 18.5743 38.4135 19.298 38.1131 19.9477" stroke="#28292A" stroke-width="2"/>
<path d="M42.1248 21.599C42.6337 20.4398 42.9161 19.1586 42.9161 17.8115C42.9161 12.6025 38.6934 8.37988 33.4845 8.37988C32.7399 8.37988 32.0154 8.46617 31.3206 8.6293" stroke="#28292A" stroke-width="2"/>
</svg>
